<?xml version="1.0" encoding="UTF-8"?>
<svg id="Layer_1" xmlns="http://www.w3.org/2000/svg" version="1.1" xmlns:xlink="http://www.w3.org/1999/xlink" viewBox="0 0 512 512">
  <!-- Generator: Adobe Illustrator 29.4.0, SVG Export Plug-In . SVG Version: 2.1.0 Build 2)  -->
  <defs>
    <style>
      .st0 {
        fill: #6b532d;
      }

      .st1 {
        fill: url(#linear-gradient2);
      }

      .st2 {
        fill: #313307;
      }

      .st3 {
        fill: #8ffdb5;
      }

      .st4 {
        fill: #1c1c1b;
      }

      .st5 {
        fill: #d1c986;
      }

      .st6 {
        fill: #007813;
      }

      .st7 {
        fill: #954704;
      }

      .st8 {
        fill: url(#linear-gradient1);
      }

      .st9 {
        fill: #54af7f;
      }

      .st10 {
        fill: #00cc83;
      }

      .st11 {
        fill: #46480b;
      }

      .st12 {
        fill: #89d59e;
      }

      .st13 {
        fill: #1e210e;
      }

      .st14 {
        fill: #49805b;
      }

      .st15 {
        fill: #101216;
      }

      .st16 {
        fill: #302b15;
      }

      .st17 {
        fill: #b76e2a;
      }

      .st18 {
        fill: #b1e1c4;
      }

      .st19 {
        fill: #65c298;
      }

      .st20 {
        fill: #00b66b;
      }

      .st21 {
        fill: #adfabb;
      }

      .st22 {
        fill: url(#linear-gradient4);
      }

      .st23 {
        fill: #4e4511;
      }

      .st24 {
        fill: #37764f;
      }

      .st25 {
        fill: #3bae3f;
      }

      .st26 {
        fill: url(#linear-gradient5);
      }

      .st27 {
        fill: #62a57d;
      }

      .st28 {
        fill: url(#linear-gradient3);
      }

      .st29 {
        fill: #7ac68a;
      }

      .st30 {
        fill: #429a6c;
      }

      .st31 {
        fill: #00b745;
      }

      .st32 {
        fill: #3c9b3c;
      }

      .st33 {
        fill: #effff5;
      }

      .st34 {
        fill: url(#linear-gradient6);
      }

      .st35 {
        fill: #0d0e21;
      }

      .st36 {
        fill: url(#linear-gradient);
      }

      .st37 {
        fill: #002e14;
      }

      .st38 {
        fill: #358533;
      }
    </style>
    <linearGradient id="linear-gradient" x1="651.3" y1="83.2" x2="662.2" y2="-79.4" gradientTransform="translate(-323 140) scale(.6 -.6)" gradientUnits="userSpaceOnUse">
      <stop offset="0" stop-color="#00d796"/>
      <stop offset="1" stop-color="#00c65c"/>
    </linearGradient>
    <linearGradient id="linear-gradient1" x1="758.5" y1="59.7" x2="761.4" y2="-84.2" gradientTransform="translate(-323 140) scale(.6 -.6)" gradientUnits="userSpaceOnUse">
      <stop offset="0" stop-color="#12d998"/>
      <stop offset="1" stop-color="#00b150"/>
    </linearGradient>
    <linearGradient id="linear-gradient2" x1="699.2" y1="59.8" x2="712.4" y2="-67.5" gradientTransform="translate(-323 140) scale(.6 -.6)" gradientUnits="userSpaceOnUse">
      <stop offset="0" stop-color="#00d18e"/>
      <stop offset="1" stop-color="#00b846"/>
    </linearGradient>
    <linearGradient id="linear-gradient3" x1="1206.2" y1="143.9" x2="1161.2" y2="-83.7" gradientTransform="translate(-323 140) scale(.6 -.6)" gradientUnits="userSpaceOnUse">
      <stop offset="0" stop-color="#35dea6"/>
      <stop offset="1" stop-color="#00bb4d"/>
    </linearGradient>
    <linearGradient id="linear-gradient4" x1="1094.1" y1="56" x2="1057.8" y2="-82.3" gradientTransform="translate(-323 140) scale(.6 -.6)" gradientUnits="userSpaceOnUse">
      <stop offset="0" stop-color="#03d792"/>
      <stop offset="1" stop-color="#00b150"/>
    </linearGradient>
    <linearGradient id="linear-gradient5" x1="1265.3" y1="172.6" x2="1204.6" y2="-31.6" gradientTransform="translate(-323 140) scale(.6 -.6)" gradientUnits="userSpaceOnUse">
      <stop offset="0" stop-color="#85ee5f"/>
      <stop offset="1" stop-color="#00cb7a"/>
    </linearGradient>
    <linearGradient id="linear-gradient6" x1="1148.4" y1="96.3" x2="1116.3" y2="-62.5" gradientTransform="translate(-323 140) scale(.6 -.6)" gradientUnits="userSpaceOnUse">
      <stop offset="0" stop-color="#21d78f"/>
      <stop offset="1" stop-color="#00b947"/>
    </linearGradient>
  </defs>
  <g id="Generative_Object">
    <g>
      <path class="st21" d="M245.1,489.6c.3,4.6-4.8,9.7,2.8,12,1.8.5,2.1-.7,2.2-.6,9.3,2.4,23.4,4.4,31.8.6,7.5-3.4,4-8.4,4.4-8.8,2-1.9,10.5,1.6,12.6.6.7-.3-.9-1.3-.3-1.6,7.3-2.9,30.2,4.4,15.4,14.2s-91.1,7.5-107.7-.6c-21.2-10.4,14.9-18.8,23.9-16.4,3.1.8,1.7,3,1.9,3.1,3.4,1.6,9.9-1.5,12.9-2.5h0Z"/>
      <path class="st18" d="M250.1,500.9c-.1,0-.4,1.2-2.2.6-7.6-2.3-2.6-7.4-2.8-12,1-.4.5-1.7,1.3-.9,0,5.2,5.7,7.2,3.8,12.3h0Z"/>
      <path class="st32" d="M258.6,497.1c.4-.3,10.2-.3,10.7,0,6.2,3.7-17.4,4.7-10.7,0Z"/>
      <g>
        <g>
          <g>
            <path class="st36" d="M97.7,245.8c.8-4.1-6.1-8.9-8.8-12.3-30.6-39.2-38.7-90.4-23.3-137.6,5.7-17.5,24.9-56.4,43.1-62.3,1-.3,3.2.2,4.4,0l-.3-2.5c4.5,2,4.7,4.6,4.4,9.1-44.4,50-54.4,112.6-22.7,172.6,3,5.7,20.4,30,20.8,32.8s-.9,7.2-4.1,7.9c-5.2,1.1-10.1-4.7-13.5-7.6h0Z"/>
            <path class="st29" d="M68.1,43.7c-39.5,62.3-40.8,124.5-5,188.9-3.1-2.9-3.8-.5-4.1-.6-4.6-1.7-24.5-54.2-23.6-62.7-3.4,2.4-8,1.4-12,2.2-3.2-19.9-3.6-36.7-.6-56.7,1.5-10.2,3.8-18.6,6.9-28.3,2.8-.3,11.5,3.7,12.6,2.2,4.7-16.7,13.5-31.3,22.7-45.7l3.2.6h0Z"/>
            <path class="st31" d="M63,232.6c3.3,6.1,6.9,12.2,10.7,17.9,3,4.6,29.8,33.1,9.8,30.6-3.5-.5-9.5-6.5-12.3-8.8,1-4.9-6.8-9.9-10.1-14.2-12.3-15.9-25.2-40.5-31.5-59.5-2.9-8.7-4.9-18-6.3-27.1,4-.8,8.6.2,12-2.2-.8,8.4,19,61,23.6,62.7.2,0,1-2.3,4.1.6h0Z"/>
            <path class="st5" d="M92.6,10.3c-2.7-1.4-6.2,3.1-8.2,5.3-7.5,8.2-13.6,18.1-19.5,27.4-9.2,14.4-18,29-22.7,45.7-1.1,1.5-9.8-2.5-12.6-2.2C39.6,55.6,59.1,20.3,88.9,4.9c-2-6.5-8.3,4.6-10.1-.3,1.4-1,2.4-3.2,4.7-3.8,6.8-1.8,11.1,2.6,9.1,9.5h0Z"/>
            <path class="st29" d="M65.6,95.9c-15.4,47.2-7.3,98.4,23.3,137.6,2.7,3.4,9.6,8.1,8.8,12.3-42.4-35.2-53.3-100.4-36.5-151.2,0,0,4.4,1.3,4.4,1.3Z"/>
            <path class="st5" d="M29.7,86.5c-3.1,9.8-5.4,18.2-6.9,28.3l-4.4-.6C23.9,77.8,48.3,26.5,78.8,4.6c1.7,4.9,8.1-6.2,10.1.3-29.8,15.3-49.3,50.7-59.2,81.6h0Z"/>
            <path class="st5" d="M22.7,114.8c-3,19.9-2.5,36.8.6,56.7,1.5,9.1,3.4,18.4,6.3,27.1h-3.8c-9.5-28.6-12.2-54.3-7.6-84.4l4.4.6h0Z"/>
            <path class="st5" d="M112.8,31.1l.3,2.5c-1.2.2-3.4-.3-4.4,0-18.3,5.9-37.4,44.8-43.1,62.4l-4.4-1.3c5.3-16.1,16.5-37.3,27.7-50.1,5.4-6.2,15.3-17.4,23.9-13.5h0Z"/>
            <path class="st29" d="M29.7,198.6c6.3,19.1,19.2,43.7,31.5,59.5,3.3,4.3,11,9.3,10.1,14.2-21.5-18.1-36.6-47.3-45.3-73.7h3.8,0Z"/>
            <g>
              <path class="st8" d="M165.7,102.9c-15.8,19.2-17,56.3-3.8,77.2,6.2,9.8,17.6,10.3,1.3,20.8,6.7.8,11.2-7.6,11.3-12.9,3.4,7.8-6.7,16.4-14.8,15.1-5.4-.8-14.6-14-17.3-18.9,4.7-2.6,6.3,10.5,11.3,7.9-13.6-15.4-18.1-38.1-16.4-58.3,1-11.5,6-25.9,13.2-35,3.9-4.9,15-16,19.5-5.7,2.4,5.4-4.3,5-4.4,9.8h0Z"/>
              <path class="st20" d="M174.5,187.9c-.1,5.3-4.7,13.7-11.3,12.9,16.3-10.5,4.9-11-1.3-20.8-13.2-20.8-12-57.9,3.8-77.2,2.6-3.2,7.2-3.4,8.2-9.4,0,.1,1.8,1.3,1.9,2.2.9,6.3-6.1,7.6-9.4,12-12.1,15.5-10.6,48.3-2.5,65.5,2.6,5.6,9.1,11.2,10.7,14.8h0Z"/>
              <path class="st5" d="M173.9,93.4c-1,6.1-5.6,6.2-8.2,9.4.1-4.8,6.8-4.4,4.4-9.8-4.6-10.3-15.6.8-19.5,5.7-7.3,9.1-12.3,23.4-13.2,35l-4.4-1.3c.8-7.3,2.2-14.8,5-21.7,5.1-12.4,25.4-41.1,35.9-17.3h0Z"/>
              <path class="st29" d="M137.4,133.7c-1.7,20.2,2.8,42.8,16.4,58.3-5,2.6-6.6-10.4-11.3-7.9-9-16-11.4-33.4-9.4-51.6l4.4,1.3h0Z"/>
            </g>
            <path class="st31" d="M92.6,10.3c-1,3.5-20.6,27.1-24.6,33.4l-3.2-.6c5.9-9.3,12.1-19.2,19.5-27.4,2-2.2,5.5-6.8,8.2-5.4Z"/>
            <g>
              <path class="st1" d="M133.9,57.5c6.3-.6,11.4,4.6,9.8,11-.3,1.2-11.9,15.9-13.9,19.5-20.7,37.7-17.4,77.1,2.5,114,3.1,5.8,13,14.6,10.1,21.4-5.2,12.1-23.8-9-27.7-13.9-25.2-31.4-29.7-78.9-12.6-115.3,4-8.5,22.5-35.9,31.8-36.8h0Z"/>
              <path class="st3" d="M134.5,58.8c2.3-.7,6.6,1.6,7.2,4.1-2.2-2.9-8.1,0-8.5-.3-1.3-1,0-3.4,1.3-3.8Z"/>
            </g>
          </g>
          <g>
            <path class="st28" d="M401.6,31.7c11-2.3,22.3,13.1,28,21.1,38.9,53.9,40,129.5-3.1,181.4-3.4,4.1-25.1,29.1-29,15.8-2-6.7,12.5-23.5,16.4-30.2,34.9-61.2,28.5-116-12-171.9-2.9-4-8.3-4.1-5.7-11.3.6-1.6,3.8-4.4,5.4-4.7h0Z"/>
            <g>
              <path class="st22" d="M357.2,199.2c-6.1,3.1-9.1,1.4-14.5-1.9-6.6-8,1.3-9.3,5-14.8,8.5-12.2,12-23.3,12-38.1s-3.3-31.5-13.9-42.8c1.2-2.7-4-4-4.4-5.3-1.7-5.2,5.7-7.8,9.8-7.2,1.4.2,7.5,5.4,4.1-1.6,21.1,12.5,27.9,43.2,25.2,66.8-1.6,14.3-11,36.9-23.3,45h0Z"/>
              <path class="st31" d="M359.7,144.4c0,14.8-3.5,25.9-12,38.1-3.8,5.5-11.7,6.8-5,14.8-.4-.2-.9.7-.9.6-6.1-4.5-4.8-9.5-.3-14.5,8.1-11.6,13.9-23.9,14.5-38.4l3.8-.6h0Z"/>
              <path class="st10" d="M345.8,101.6c10.5,11.3,13.8,27.8,13.9,42.8l-3.8.6c.4-10.9-3-28-9.5-36.8-1.8-2.4-8.3-6.8-8.8-8.8-2.5-9.6,2.9-1.3,4.7.3.5.5,3.3,1.7,3.5,1.9h0Z"/>
              <path class="st30" d="M342.7,197.4c5.4,3.3,8.4,5,14.5,1.9-6.6,4.4-14.4,5-18.9-2.8-5-8.6-.2-8.1,3.1-12.9-4.5,5-5.8,10,.3,14.5,0,0,.6-.8.9-.6h0Z"/>
            </g>
            <g>
              <path class="st26" d="M422,272.3c5.6-1.6,8.4-8.6,12.6-12.3l-3.1-.3c51.5-75,61.2-143.6,8.2-222-3-4.4-20.2-24.8-20.8-26.5-2.2-6.2,3-11.6,9.1-10.4,9.8,1.8,35.7,36.9,41.2,46.3,34.3,58,36,126,3.1,185.2-7.1,12.9-26.8,39.8-39.4,46.9-7.1,4-13.5,2.3-11-6.9h0Z"/>
              <path class="st31" d="M422,272.3c1.3-4.7,6.8-8.8,9.5-12.6l3.1.3c-4.2,3.7-7,10.7-12.6,12.3h0Z"/>
              <path class="st33" d="M423.6,2.1c1.8-.5,9,3.6,10.7,5,1.2,1,6.1,4.7,4.1,6-1.4.9-15.8-13-18-4.1-1.7-1.1,2.8-6.8,3.1-6.9h0Z"/>
            </g>
            <g>
              <path class="st34" d="M374.5,58.2c10.9-2.2,24.8,17.1,29.9,25.5,23.8,39,20.4,92.9-8.2,128.5-4,5.1-20.8,24.6-25.8,11.3-2.9-7.6,7.1-16,10.7-22.7,21.5-39.5,22-77.7-1.3-116.5-1.6-2.6-11.1-13.6-11.3-14.5-1.2-3.9,1.8-10.8,6-11.7h0Z"/>
              <path class="st3" d="M376.4,58.8c1,0,7.9,2.2,7.9,3.5-3.1,2.7-8.9-3.4-13.5,1.6-.7-2.2,4.5-5,5.7-5h0Z"/>
            </g>
          </g>
        </g>
        <g>
          <g>
            <path class="st23" d="M264,183.5c1.7.1,4.2,0,4.4,0s3.1,2.1,3.8,2.5c-8.8-.1-17.7.2-26.4,0-1.2,0-2.5,0-3.8,0-1.1-1.4-.4-1.4,0-2.5.6.2,2.9,0,3.1,0,.7.1.7.6,1.9.6,1.6,0,4.7.1,6.3,0,1.5-.1,2.2-.5,3.2-.6.9-.1.5,1.4.9,1.3.2,0,1.8-1.9,2.8-2.5.1,3.4,3,1.2,3.8,1.3h0Z"/>
            <path class="st6" d="M210.4,183.5c0,.1-.9,3,.6,0,.2,0,.4,0,.6,0,.6.9.7,1.2,1.9,1.6l-3.1,1.6c-.5,0-.9,1-2.2.6-1.8-.5-5.9-6.7-7.2-8.2l2.2-2.5c1.9,2.6,5.3,4.6,7.2,6.9h0Z"/>
            <path class="st12" d="M194.1,104.8c-.5-.2-1.8.5-1.9.6.4-2.3-1.6,0-1.9-.9-.9-3.6,7.4-11,6.9-6.9-.8,2.5-4.8,2.9-5,3.2-.1.2,1.6,1.8,1.9,4.1Z"/>
            <path class="st9" d="M183.6,118c2.3-.4,1.4,7.1,1.6,8.5,4.8-2.3,3.5,4.7-.6,1.3l-.9-9.8Z"/>
            <path class="st7" d="M234,114.8c2.8-.3,3.2,5.3.6,5.7s-3.5-5.4-.6-5.7Z"/>
            <path class="st7" d="M237.8,109.8c4-1.2,2.7,6,.6,5.7-.5,0-3.6-4.8-.6-5.7Z"/>
            <path class="st6" d="M237.8,99.1l2.8,2.8-2.2,3.5c-1.8-2.1-3.1-4.2-.6-6.3h0Z"/>
            <path class="st7" d="M238.4,119.9c3-.2,2.1,5.7,0,5.7-2,0-2.8-5.4,0-5.7Z"/>
            <path class="st11" d="M245.1,106l-2.5,3.8c-1.4-1.2-2.5-3-1.3-4.7,1.6-2.2,2.2.2,3.8.9Z"/>
            <path class="st17" d="M197.5,114.2c4.5,3-.5,9.1-1.6,5.3-.6-1.9.8-3.8,1.6-5.3Z"/>
            <path class="st24" d="M203.8,114.8c3,.6.8,6.6-.6,6.3-1.7-2.7-2-4.1.6-6.3Z"/>
            <path class="st7" d="M234,104.1c2.2,0,3.1,5,.6,5.7-2.7.7-3.2-5.7-.6-5.7Z"/>
            <path class="st7" d="M225.2,114.8c3.1-.7,3.2,4.6,1.3,5-1.8.4-4.3-4.3-1.3-5Z"/>
            <path class="st17" d="M199.1,111.1c1.8.1,2.2-1.9,3.8,1.6-2.8,5.9-3.7,4.2-3.8-1.6Z"/>
            <path class="st13" d="M244.4,114.8l.6,1.9c-.1.2-1.9,3.8-2.2,3.8-4.8-5.5,0-4.2,1.6-5.7h0Z"/>
            <path class="st7" d="M221.4,119.9c3-.4,2.3,5.5.6,5.7-1.3.1-3.5-5.3-.6-5.7Z"/>
            <path class="st7" d="M234.7,94.1c2.3.3,1.3,5.7-.6,5.7-2.7,0-1.7-6,.6-5.7Z"/>
            <path class="st7" d="M229,109.8c2.7-1.2,3.9,4.7,1.3,5-2.4.3-2.7-4.4-1.3-5Z"/>
            <path class="st7" d="M230.3,99.1c2.2,0,2,6.3-.6,5.7-1.9-.5-1.6-5.7.6-5.7Z"/>
            <path class="st17" d="M207.6,94.7c2.6.8-.6,5.4-1.9,6.3-2.3-1.6.4-6.8,1.9-6.3Z"/>
            <path class="st27" d="M194.1,104.8c.4,3,1,4.3-1.6,6.9-.8-1.9-1.4-4.4-.3-6.3,0-.2,1.4-.8,1.9-.6h0Z"/>
            <path class="st7" d="M229.6,119.9c1.9-.4,3.4,4.1,1.3,5-2.6,1.1-3.5-4.5-1.3-5Z"/>
            <path class="st17" d="M207.6,109.8c2.9,0,.6,6.9-.6,6.3-1.3-1.3-1.6-6.3.6-6.3Z"/>
            <path class="st7" d="M227.1,94.1c1.5.2,2,5.5-1.3,5.7-2.1-1.5.1-5.8,1.3-5.7Z"/>
            <path class="st7" d="M243.2,94.7c1.6,1.9,1.7,2.4,0,4.4-1.9-.7-2.9-1-2.5-3.5.9-2,2.4-.9,2.5-.9h0Z"/>
            <path class="st7" d="M214.5,109.8c2.2,0,2,5.4-.6,5s-.9-5,.6-5Z"/>
            <path class="st9" d="M199.1,106.7l.6,2.5c0,1.2-.6,1.4-.6,1.9-.9,0-.5,1.4-.9,1.3-1.5-.4-2.4-6.4.6-6.9,1.8,0,0,.9.3,1.3Z"/>
            <path class="st7" d="M225.2,104.8c3.2-1.1,3.1,5.1.6,5-1.6,0-2.6-4.4-.6-5Z"/>
            <path class="st27" d="M197.5,99.7c2.7.3-.8,7.2-1.9,6.3-1-2.4,0-4.8,1.9-6.3Z"/>
            <path class="st24" d="M213.9,119.9c2.7,0,.9,5.6,0,5.7-1.9.2-2.8-5.7,0-5.7Z"/>
            <path class="st17" d="M203.2,99.1c1.6.4.1,6.9-1.3,6.9-3.1,0,.9-7,1.3-6.9Z"/>
            <path class="st17" d="M205.1,104.8c2.3.2.9,6.5-.6,6.3-1.6-1.4-1-6.4.6-6.3Z"/>
            <path class="st7" d="M230.3,89.7c3.2-.8,1.8,4.8.6,5-2.1.5-2.7-4.5-.6-5Z"/>
            <path class="st7" d="M217.7,114.8c3.7-.3.8,5.7,0,5.7s-2.7-5.4,0-5.7Z"/>
            <path class="st7" d="M215.8,99.7c2.6.3.2,6-1.3,5.7-1.9-.4-.3-5.8,1.3-5.7Z"/>
            <path class="st11" d="M227.7,84.6c2.6-.3,1.2,6.1-.6,5.7-1.4-.3-.9-5.5.6-5.7Z"/>
            <path class="st24" d="M219.6,94.7c2,0,1.3,5.9-.6,5.7-2.5-.3-.5-5.7.6-5.7Z"/>
            <path class="st7" d="M237.8,89.7c2.9-.8,2.5,5.1.6,5-1.3,0-3-4.4-.6-5Z"/>
            <path class="st7" d="M210.7,114.8c2.6,0,.8,6.3-.6,5.7-1.2-.5-1.8-5.7.6-5.7Z"/>
            <path class="st17" d="M195,110.4c2.9-.7,1.2,6.6-.6,5.7-1.1-.5-.8-5.3.6-5.7Z"/>
            <path class="st7" d="M221.4,109.8c2.6-.6,2.7,5,.6,5s-3-4.5-.6-5Z"/>
            <path class="st7" d="M211.4,104.8c2.4-.2,1.3,5.9-.6,5.7-2.3-.2-.6-5.5.6-5.7Z"/>
            <path class="st7" d="M207,119.9c2.4.2.9,5.8-.6,5.7-2.4-.2-.9-5.8.6-5.7Z"/>
            <path class="st6" d="M222.1,99.7c2.6-.6,2.5,4.8.6,5s-2.9-4.6-.6-5Z"/>
            <path class="st24" d="M223.3,90.3c3.1-.9,1.4,5.8-.6,5-1.3-.5-.9-4.6.6-5Z"/>
            <path class="st6" d="M217.7,89.7c2,.6.2,5.9-1.3,5.7-2.4-.3-.2-6.1,1.3-5.7Z"/>
            <path class="st24" d="M208.9,100.3c3.1,0-.2,5.7-.6,5.7-2,0-1.3-5.6.6-5.7Z"/>
            <path class="st7" d="M218.3,104.8c2.5,0,1.3,5.7,0,5.7-1.1,0-2.5-5.7,0-5.7Z"/>
            <path class="st7" d="M213.3,94.7c2,.3.6,6.3-1.3,5.7-2-.6.1-5.8,1.3-5.7Z"/>
            <path class="st17" d="M217.7,124.3c.3,0,2.6,3,2.5,3.8-6.8,1.8-4.3-3.8-2.5-3.8Z"/>
            <path class="st6" d="M235.3,84.6c1.4.4,1.1,5.8-.6,5.7-2.5-.2-.9-6.1.6-5.7Z"/>
            <path class="st17" d="M205.7,90.9c2.5.5-1,6.1-1.9,5.7-2.1-.9,1-5.8,1.9-5.7Z"/>
            <path class="st24" d="M200,119.9c2.2,1.5,2,3.6.6,5.7-1.5.3-2.8-5-.6-5.7Z"/>
            <path class="st7" d="M221.4,85.2c3.2-.2.3,5.2-.6,5-1.7-.2-.9-4.9.6-5Z"/>
            <path class="st7" d="M225.2,124.9l3.5,2.8c-3.5.7-7,1-3.5-2.8Z"/>
            <path class="st7" d="M231.5,80.2c1.7-.2,2.2,4.8.6,5-1.8.3-2.8-4.8-.6-5Z"/>
            <path class="st7" d="M211.4,90.3c2.1.3.4,5-1.3,5.7-1.9-.9.1-5.8,1.3-5.7Z"/>
            <path class="st24" d="M210.1,124.3c1.4.2,2.3,5.8-1.3,4.4-2.6-1,.9-4.5,1.3-4.4Z"/>
            <path class="st24" d="M210.7,85.9c2.3,0-1.6,5.7-2.5,5.7-2.3,0,1.6-5.7,2.5-5.7Z"/>
            <path class="st2" d="M243.8,124.9l1.3,3.1c-.9,0-3.9.3-4.4-.3-.2-1.8,2.8-2.5,3.1-2.8h0Z"/>
            <path class="st7" d="M230.3,75.8c2.5.3.1,4.4-1.3,5-2-1,.7-5.1,1.3-5Z"/>
            <path class="st11" d="M225.9,80.2c2.5,0,.1,6.1-1.3,5-1.2-.9.5-5.1,1.3-5Z"/>
            <path class="st11" d="M234,124.9c1.1,0,2.4,2.2,2.5,3.1l-4.7-.3c.5-.5,1.5-2.8,2.2-2.8h0Z"/>
            <path class="st27" d="M191.2,115.5c1.2-.5,2.9,4.5,1.3,5-1.8.6-2.4-4.2-1.3-5Z"/>
            <path class="st7" d="M220.8,80.8c1.9-.2-.8,5.1-1.9,5-2.4,0,.9-4.8,1.9-5Z"/>
            <path class="st7" d="M215.8,85.9c2.6.3-.5,4.3-1.3,5-1.9-1.1.4-5.1,1.3-5Z"/>
            <path class="st17" d="M188.7,119.2c1.7-.8,1.3,4.8,0,5.7v-5.7Z"/>
            <path class="st7" d="M215.1,81.5c2.6,0-1.7,5-2.5,5-1.4-.7,2.2-5.1,2.5-5Z"/>
            <path class="st17" d="M193.7,120.5c2.4-1.2,1.9,5,.6,5s-.9-4.9-.6-5Z"/>
            <path class="st27" d="M191.2,124.3l1.9,3.8c-4.2.3-3.6-.9-1.9-3.8Z"/>
            <path class="st17" d="M203.2,124.9c.2,0,2.1,2.5,1.9,3.1-5.2,1.4-3.1-3.3-1.9-3.1Z"/>
            <path class="st6" d="M216.1,78.3c-2.5,5.9-7.5,4.9-.6,0,.2,0,.4,0,.6,0Z"/>
            <path class="st11" d="M225.5,77.1l-2.5,3.5,1.9-4.7c.5.4.9.1.6,1.3Z"/>
            <path class="st24" d="M196.2,125.6c1.5-.9,3.2,1.6,2.8,2.2-1.2,1.6-4.6-1.1-2.8-2.2Z"/>
            <path class="st7" d="M220.2,77.1l-1.9,4.4c-1.9-1.5.9-3.3,1.9-4.4Z"/>
            <path class="st24" d="M199.7,109.2l-.6-2.5c0,0,1.2-.2,1.3.3.2,1.4-.6,1.7-.6,2.2h0Z"/>
            <g>
              <path class="st12" d="M261.4,59.4l4.1,5.7c3.2-1.1-.3-3.2-.3-3.5.1-1.2,4.6,2,2.5-1.6,19.1,2.3,37.2,11.3,49.1,26.8,2.1,2.7,6.4,8.7,6.9,11.7,0,.1-1.4,2.5.6,1.3,1.1,2.2,2.1,4,3.1,6.3-1.6.5.2,5.3,1.9,4.4,1,2.6,1.8,4.8,2.5,7.6-2,1.3.3,5.6,1.3,7.6,2,4.1,2.5,3.3,4.4,6.3-2.5.4-5.5,0-8.2,0-5.3,0-9.2,1.1-13.9,1.3l-45-2.5.3-2.5c8-2.3-4.5-5.8-.6,0-2.5.5-4,0-6.3,0,0-4.3-3.6-4.5-5-.6-1.4,0-2,.7-4.4.6,0-4.1-4.9-4.8-4.4,0-1.9,0-1.1-1.2-1.6-1.3-.2,0-.8,1.3-3.5,1.3l-1.3-3.2c0,0,.7,0,1.9-1.3,2.5,2.9,4.8-1.5,3.1-3.8.8-.3,1.1-.9,1.9-1.3.3-.1,4.7.6,3.8-2.8-1.1-3.9-4.1.8-4.4.9-4.2,1.6-2-2.5-3.5-1.9-.2,1.3-1.1,1.4-1.6,1.9l-.6-1.9c.4-.4.7-.3,1.3-1.3,3.9,2,5.7-3.4,1.3-4.4-1.4-.3-2.5,2.1-4.4.6l2.5-3.8c2.2,1,3.9,2.5,1.9-1.9,3.7-2.7,2-4-1.3-5-.8-.2-.9.6-2.5,0,1.7-2,1.6-2.5,0-4.4.6-.3,1.2-1.3,1.9-1.9,4.7,4,4.9-6.3-.6-1.9-.4-.4-.9-.8-1.3-1.3,2.7-3.1-.1-7.3-2.5-3.2-.3-.4-1.2-.4-1.9-1.3,3.7-1.9,1.6-7.4-1.9-3.2,0,0-.1-.5-.6-1.3,2.8-3.3-.6-7.4-1.9-2.5-.4-.6-.9-1.2-1.3-1.9,4.8-1.7,3.2-7.9-.6-2.5-.5-1-.9-1.7-1.6-2.5-.6.5,0,1-.9,1.3-.7.2-4.5.9-1.3,2.5-1.1,1.7-.3,1.6-3.1,1.9.3-1.1-.2-.9-.6-1.3-.1,0-.5,0-.6,0l1.3-2.8c-.4-.7-.8.6-1.3.3,0,0,.2-.8-1.3-.6s-.5,0-1.3.6c-1.4.3-4.4,1.8-3.1,3.8-1.5,1.1-.4.7-2.5,1.3-.2,0-.4,0-.6,0-.7-3.2-4.9,4-5.7,5-1.1-1.2-2.9,2.3-1.3,2.5-.7.8-1.4,1.3-1.9,1.9l-.6-1.6v2.2c-1.5,1.6-3.2,2.2-4.1,5-2.2-4.8,3.4-8.4,4.7-12.9l.9,1.6,4.7-4.1-3.1,1.3c1.8-5,3.8-2.1,4.1-2.2,3.4-1.8,3.7-9,5.7-4.4l13.2-10.1c10-.7,19.7-3.7,29.3-3.2h0Z"/>
              <g>
                <path class="st9" d="M267.7,60c2,3.5-2.4.3-2.5,1.6,0,.3,3.5,2.4.3,3.5l-4.1-5.7c2,.1,4.3.4,6.3.6h0Z"/>
                <path class="st13" d="M245.7,113.6c.1-.2-1.1-2.9,1.3-4.4,4.4,1,2.7,6.4-1.3,4.4Z"/>
                <path class="st11" d="M248.8,119.9c1.6,2.3-.6,6.7-3.1,3.8.1-.1-1.2-2.1.6-3.5.9-.7,1.9,0,2.5-.3h0Z"/>
                <path class="st13" d="M250.7,118.6l-.6-1.9c.3-.1,3.3-4.9,4.4-.9,1,3.5-3.5,2.7-3.8,2.8Z"/>
                <path class="st11" d="M246.9,104.1c-.6-1.4-3.2-1.1-1.3-5,3.2,1.1,5,2.4,1.3,5Z"/>
                <path class="st2" d="M264,128.1c-1.9,0-4.1-.6-5-.6,1.4-3.9,5.1-3.6,5,.6Z"/>
                <path class="st13" d="M245.1,92.8c-.6-.5-.6-1.8-.6-1.9,5.5-4.4,5.3,5.9.6,1.9Z"/>
                <path class="st16" d="M243.2,89.7c-1.6-1.6-1.6-2.1-2.5-3.2,2.4-4.2,5.2,0,2.5,3.2Z"/>
                <path class="st11" d="M254.5,128.1c-1.5,0-2.9,0-4.4,0-.4-4.8,4.4-4.1,4.4,0Z"/>
                <path class="st4" d="M270.9,128.1c-.2,0-.4,0-.6,0-3.9-5.8,8.6-2.3.6,0Z"/>
                <path class="st7" d="M238.8,85.2c-.8-1-1.2-2.2-1.9-3.2,3.5-4.2,5.6,1.2,1.9,3.2Z"/>
                <path class="st7" d="M233.1,76.4c-.6-1.1-.5-2.2-.6-2.5,3.8-5.4,5.4.8.6,2.5Z"/>
                <path class="st7" d="M236.2,80.8c-.4-.5-1-1.1-1.9-2.5,1.3-4.9,4.7-.8,1.9,2.5Z"/>
                <path class="st6" d="M333.2,125.6c-1-2-3.3-6.3-1.3-7.6.6,2.5,1.8,4.8,1.3,7.6Z"/>
                <path class="st24" d="M329.5,110.4c-1.7.9-3.5-3.9-1.9-4.4.7,1.5,1.3,2.8,1.9,4.4Z"/>
                <path class="st11" d="M229.9,72.6c.1,1.1-.7,1.7-1.3,2.5-3.2-1.6.6-2.3,1.3-2.5Z"/>
                <path class="st6" d="M221.8,73.3c-.7.5-2.4,3.2-3.1,3.8-1.3-2,1.8-3.4,3.1-3.8Z"/>
                <path class="st11" d="M224.3,75.8c-.2-.2-2.9,1.8,0-2.5.4.3.8-1.1,1.3-.3,0,0-1.3,2.8-1.3,2.8Z"/>
                <path class="st24" d="M209.8,83.3c0,.1-.6,1.8-1.3,2.5-1.7-.2.2-3.7,1.3-2.5Z"/>
                <path class="st14" d="M324.4,99.7c-2.1,1.2-.6-1.1-.6-1.3,1,0,.5.9.6,1.3Z"/>
                <path class="st17" d="M206.6,87.8c-.2.3-.4.4-.6.6v-2.2l.6,1.6Z"/>
                <path class="st7" d="M223,72.6c0,.9-.8.5-1.3.6.8-.6-.1-.5,1.3-.6Z"/>
                <path class="st7" d="M288.2,82.7c2.3-.9,3.6,8,1.3,8.2-1.5.1-3.1-7.5-1.3-8.2Z"/>
                <path class="st17" d="M321.3,116.1c1.5-1.1.5-3.2,0-4.4,3.5-1.3-2.9-5.9-.9-8.2,3,1.4,5.3,15.7.9,12.6Z"/>
                <path class="st11" d="M283.8,77.7c.3,0,4.4,3.6,1.9,4.4-4.6-1.6,1,1.2-1.3,3.8-3.1-.6-2-8-.6-8.2Z"/>
                <path class="st4" d="M307.7,113.6c1.9-.2,2.8,6.2.6,6.9-2.5.8-2.9-5.4-.6-6.9Z"/>
                <path class="st11" d="M256.7,119.2c3.4-.3,2,5.7,0,5.7-2.3,0-2.7-5.4,0-5.7Z"/>
                <path class="st7" d="M293.2,88.4c2.5.7,2.9,6.4,1.3,6.9-2,.7-3.1-5.5-1.3-6.9Z"/>
                <path class="st16" d="M270.6,114.2c2.3-.2,3.5,4.2,1.3,5-2.8,1.1-4.5-4.7-1.3-5Z"/>
                <path class="st7" d="M326,110.4c1.2-1,4.9,6.6,3.1,8.2-.9-1.3-4.9-6.8-3.1-8.2Z"/>
                <path class="st13" d="M259.9,94.1c2.8-.3,3.3,4.8.6,5s-3.3-4.8-.6-5Z"/>
                <path class="st13" d="M275.6,119.2c2.3-.2,2.8,4.3,1.3,5-3.3,1.5-4.5-4.8-1.3-5Z"/>
                <path class="st11" d="M283.8,119.9c2.7-.4,3.6,5.4,1.3,5.7-1,0-4.7-5.1-1.3-5.7Z"/>
                <path class="st4" d="M304.6,119.9c3.2-.6,1.7,6.3,0,6.3s-2.1-5.9,0-6.3Z"/>
                <path class="st7" d="M302.7,98.5c1.5-.3,3.5,6.8,1.3,6.9-.9,0-4.2-6.4-1.3-6.9Z"/>
                <path class="st11" d="M255.4,89c1.6.2,2.8,4.4.6,5-3.7,1-3.8-5.5-.6-5h0Z"/>
                <path class="st7" d="M261.1,114.2c2.8-.3,3.3,4.8.6,5s-3.3-4.8-.6-5Z"/>
                <path class="st4" d="M255.4,99.1c3.7-.9,2.7,4.9.6,5s-3.1-4.4-.6-5h0Z"/>
                <path class="st11" d="M323.5,121.1c.5,0,4.9,6.2,2.5,6.9-1.4.4-4.9-6.6-2.5-6.9Z"/>
                <path class="st11" d="M269.3,104.1c2.5-.5,3.9,4.6,1.3,5-2,.3-4.2-4.4-1.3-5Z"/>
                <path class="st4" d="M250.4,84.6c3.6-.4,2.2,4.9.6,5-2.6.3-3.4-4.7-.6-5Z"/>
                <path class="st13" d="M266.2,119.2c2.6-.2,2.8,4.7.6,5-2.6.4-3.5-4.8-.6-5Z"/>
                <path class="st7" d="M297.6,94.1c.5-.3,2.8,1.9,2.8,2.2,1.8,6.3-5.8,3.1-2.8-2.2Z"/>
                <path class="st13" d="M264.9,99.1c2.6-.2,2.8,4.7.6,5-2.6.4-3.5-4.8-.6-5Z"/>
                <path class="st13" d="M251.1,104.1c3.1-1,3.4,4.6,1.3,5-2.3.5-3.4-4.3-1.3-5Z"/>
                <path class="st2" d="M312.5,109.2l1.9-1.3c1.1,2.1,4.3,4.8,1.6,7.6-.5-1.9-3-5.1-3.5-6.3h0Z"/>
                <path class="st13" d="M275,109.2c1.2,0,3.2,4.2,1.3,5-3.5,1.6-4.3-5.1-1.3-5Z"/>
                <path class="st11" d="M287.6,114.8c2.9-.4,2.3,5.7,1.3,5.7-2.2,0-3.9-5.3-1.3-5.7Z"/>
                <path class="st13" d="M260.5,104.1c3.2-.7,2.9,4.8.6,5s-3-4.6-.6-5Z"/>
                <path class="st4" d="M279.4,114.8c2.8-.7,3.8,3.8,1.3,4.4-2.8.7-3.8-3.8-1.3-4.4Z"/>
                <path class="st13" d="M276.2,95.3c3.5-.8,3.3,5,1.3,5s-4.6-4.2-1.3-5Z"/>
                <path class="st11" d="M265.5,109.2c2.6-.2,2.8,4.7.6,5-2.5.4-3.4-4.8-.6-5Z"/>
                <path class="st11" d="M256.1,109.2c2.1-.4,4,3.6,1.3,4.4-3.8,1.1-3.3-4-1.3-4.4Z"/>
                <path class="st13" d="M310.9,119.2c1.7-.2,3.1,5.2.6,5.7s-2.5-5.5-.6-5.7Z"/>
                <path class="st13" d="M304.6,109.2c2-.1,2,6.4,0,6.3-1.9-.1-1.9-6.2,0-6.3Z"/>
                <path class="st13" d="M288.8,100.3c2.1-.3,3.6,4.5,1.3,5-2,.4-4.2-4.6-1.3-5Z"/>
                <path class="st13" d="M283.2,109.8c2.1-.3,3.6,4.5,1.3,5-2,.4-4.2-4.6-1.3-5Z"/>
                <path class="st14" d="M261.8,81.5l4.1,2.2c-2.5,4.1-7.1-.8-4.1-2.2Z"/>
                <path class="st2" d="M251.1,94.1c2.6,0,2.5,5.1,0,5-1.9,0-3-5,0-5Z"/>
                <path class="st16" d="M271.2,90.3c2.5-.5,4,3.5,1.9,4.4s-4.7-3.8-1.9-4.4Z"/>
                <path class="st7" d="M300.8,104.8c1.8,0,2,5.1.6,5.7-2.4.9-3.4-5.7-.6-5.7Z"/>
                <path class="st13" d="M313.4,114.2c1.2,0,2.9,4.8,1.3,5.7-3.1,0-3.6-5.7-1.3-5.7Z"/>
                <path class="st13" d="M254.2,80.2c2-.2,4,3.8,1.3,4.4-2.6.6-4-4.2-1.3-4.4Z"/>
                <path class="st2" d="M295.8,100.3c2.1-.8,3.2,5.4,1.3,5.7-1,.1-3.8-4.8-1.3-5.7Z"/>
                <path class="st13" d="M268,94.7c1.9-.3,4,3.6,1.9,4.4s-4.9-3.9-1.9-4.4Z"/>
                <path class="st13" d="M285.7,105.4c2.6-1.2,3.7,4.3,1.9,5-1.5.6-3.9-4.2-1.9-5Z"/>
                <path class="st13" d="M278.1,104.8c1.7-.3,4.2,3.7,1.3,4.4s-3.6-4-1.3-4.4Z"/>
                <path class="st4" d="M281.3,100.3c3.2-.7,2.9,4.7,1.3,5-.5,0-4.8-4.3-1.3-5Z"/>
                <path class="st4" d="M246,80.2c3.3-.8,2.8,4.2.6,4.4-2.3.2-2.9-3.9-.6-4.4Z"/>
                <path class="st7" d="M272.5,71.4c.5.2-2.1,10.5-4.7,5.3l4.7-5.3Z"/>
                <path class="st6" d="M314.7,100.3c.9,1.6,4.6,8.4,2.5,8.8-.4-2.8-5-6.3-2.5-8.8Z"/>
                <path class="st13" d="M263.6,89.7c1.9-.2,3.3,3.6,1.3,4.4-3,1.2-3.8-4.1-1.3-4.4Z"/>
                <path class="st4" d="M306.5,104.1c2.6-.9,2.6,5.7.6,5.7-.9,0-2.7-4.9-.6-5.7Z"/>
                <path class="st11" d="M293.2,105.4c1.7-.2,3.4,5.4,1.3,5.7-1.2.2-4.1-5.3-1.3-5.7Z"/>
                <path class="st2" d="M285.7,90.9c1.7-1.4,4.8,4,2.5,5-1.2.5-4.2-3.7-2.5-5Z"/>
                <path class="st2" d="M281.3,85.9c1.4-.5,4.5,4.1,1.9,5-1.4.5-4.2-4.3-1.9-5Z"/>
                <path class="st13" d="M274.4,85.9c1.6-.6,4.5,3.3,1.9,4.4-2.1.9-4.2-3.5-1.9-4.4Z"/>
                <path class="st4" d="M266.8,85.9c3.1-.7,3.2,4,1.3,4.4-1.6.3-4.2-3.7-1.3-4.4Z"/>
                <path class="st7" d="M259.2,84.6c.3,0,3.6,3.8,1.9,4.4-4.9,1.7-4.2-4.6-1.9-4.4Z"/>
                <path class="st7" d="M325.4,114.8c1.3,2.7,3.1,5.1,1.9,8.2-2.2-.4-2.8-7.8-1.9-8.2Z"/>
                <path class="st13" d="M279.4,90.3c1,0,4.5,4.6,1.3,5-2.4.3-3.9-5-1.3-5Z"/>
                <path class="st13" d="M284.4,95.3c.9,0,3.7,4.2,1.3,5-2,.7-4.1-5-1.3-5Z"/>
                <path class="st4" d="M301.4,115.5c2.6-.6,2.5,4.8.6,5s-2.9-4.6-.6-5Z"/>
                <path class="st13" d="M249.8,75.8c1.7-.2,4.5,4.2,1.3,4.4-2.1.2-3.9-4-1.3-4.4Z"/>
                <path class="st11" d="M290.7,110.4c1.4,0,3.5,4.3,1.3,5-1.9.6-4-4.9-1.3-5Z"/>
                <path class="st35" d="M310.2,108.5c.6,0,2.9,5.1.6,5.7-2.4.7-2.7-6-.6-5.7Z"/>
                <path class="st13" d="M273.1,99.7c1.6-.2,3.9,3.9,1.9,4.4-2.6.7-4.7-4-1.9-4.4Z"/>
                <path class="st7" d="M288.8,77.1c1,2.4,4.5,3.8,3.1,6.9-1.8-1.8-5.1-4.1-3.1-6.9Z"/>
                <path class="st11" d="M298.3,88.4c2.5,0,4.4,2.8,3.1,5-1.3,1.1-4.1-4.5-3.1-5Z"/>
                <path class="st4" d="M243.5,75.8c2.7.3.6,5-.6,5-2.1,0-2-5.4.6-5Z"/>
                <path class="st13" d="M269.9,81.5c1.9-.3,3.5,3.6,1.9,4.4-2,1-5-3.9-1.9-4.4Z"/>
                <path class="st4" d="M257.3,77.1c2.8-1.3,4.3,3.5,1.9,3.8s-3.9-2.9-1.9-3.8Z"/>
                <path class="st13" d="M291.4,95.3c1.4,0,3.1,4.3,1.3,5s-4.1-5-1.3-5Z"/>
                <path class="st11" d="M288.8,124.9c1,0,3,3.1,1.9,3.8-4.1,2.4-4.9-3.7-1.9-3.8Z"/>
                <path class="st11" d="M297.6,111.1c2.3-.8,2.9,5.1.6,5-1.3,0-2.6-4.3-.6-5Z"/>
                <path class="st13" d="M253.6,72.6c2.1-.2,3.9,4,1.3,4.4-1.9.3-3.7-4.1-1.3-4.4Z"/>
                <path class="st11" d="M319.1,116.1c1.8-.6,3,4.4,1.3,5.7-1.7-.8-2.7-5.2-1.3-5.7Z"/>
                <path class="st4" d="M314.3,107.9l-1.9,1.3c-2.4-6.1-1.7-7.9,1.9-1.3Z"/>
                <path class="st11" d="M292,120.5c2.2-.3,2.7,3.8,1.3,4.4-1.9.8-4.1-4-1.3-4.4Z"/>
                <path class="st13" d="M279.4,124.9c2.5-.8,3.5,2.6,2.5,3.1-3.3,1.9-5-2.4-2.5-3.1Z"/>
                <path class="st7" d="M299.5,76.4c1.6-.8,3,6.7,2.5,6.9-3-2.2-2.5-3.7-2.5-6.9Z"/>
                <path class="st7" d="M295.1,115.5c.3,0,3.3,4.3,1.3,5s-3.7-5.4-1.3-5Z"/>
                <path class="st11" d="M293.9,82.7c2.3,1.7,3.8,2.3,2.5,5.7-1.7-1.7-3.8-2.9-2.5-5.7Z"/>
                <path class="st11" d="M307.7,97.8c.8.6,3.5,5.1,2.5,5.7-2.2,1.3-3.8-4.1-2.5-5.7Z"/>
                <path class="st11" d="M298.9,82.7c.9-.7,4.2,3.5,2.5,5-.8.6-4-4-2.5-5Z"/>
                <path class="st13" d="M276.9,81.5c1-.1,3.7,4.7,1.3,5-1,.1-3.7-4.7-1.3-5Z"/>
                <path class="st2" d="M239.7,72.6c3.5-1.5,1.7,4.7,0,4.4-1.1-.2-1.5-3.8,0-4.4Z"/>
                <path class="st11" d="M321.3,111.7c.5,1.2,1.5,3.3,0,4.4-2.4-1.4-2-9.8,0-4.4Z"/>
                <path class="st7" d="M294.5,77.7c.7,0,4,4.3,2.5,5.7-.4.2-5.4-5.6-2.5-5.7Z"/>
                <path class="st13" d="M307.7,124.3c1.2-.3,3.6,4.8,0,4.4-2.8-.3-.3-4.3,0-4.4Z"/>
                <path class="st2" d="M298.9,120.5c1.5-.2,2.4,3.8.6,4.4-2.2.8-2.6-4.2-.6-4.4Z"/>
                <path class="st2" d="M303.3,87.1c2,0,3.8,4.7,2.5,5.7-1.9,0-2.8-5.5-2.5-5.7Z"/>
                <path class="st13" d="M257.3,69.5c1.8-.2,3.6,4.4,1.3,4.4s-4.3-4.2-1.3-4.4Z"/>
                <path class="st2" d="M264.3,70.8c.8-.1,3.5,2.6,3.5,2.8,0,3.9-6.7-2.3-3.5-2.8Z"/>
                <path class="st16" d="M308.4,92.2l2.5,6.3c-2.5-1.2-3.6-3.7-2.5-6.3Z"/>
                <path class="st7" d="M303.3,93.4c1.2-.9,3.3,3.7,1.9,5-.7.6-3.4-3.8-1.9-5Z"/>
                <path class="st24" d="M322.2,99.7l2.5,6.3c-.8.5-4.1-5-2.5-6.3Z"/>
                <path class="st11" d="M284.4,72.6l1.9,5c-.9.7-4.4-4-1.9-5Z"/>
                <path class="st2" d="M244.8,68.9c2.5.3,1.1,4.8-1.3,3.8-1.7-.7-.3-4,1.3-3.8Z"/>
                <path class="st4" d="M296.4,124.9c.8,0,2.6,3,.6,3.8-3.5,1.4-2.7-3.8-.6-3.8Z"/>
                <path class="st11" d="M266.8,68.2c2.3-.5,4,3.1,1.9,3.8-1.2.4-3.8-3.4-1.9-3.8Z"/>
                <path class="st13" d="M259.9,67c1.6-.3,4.2,3.9,1.9,4.4-.3,0-4.5-4-1.9-4.4Z"/>
                <path class="st7" d="M273.7,73.9c2-1.6,3.4,2.9,1.9,3.8s-3-2.9-1.9-3.8Z"/>
                <path class="st4" d="M317.2,120.5c1.2-.2,2.8,5,1.3,5-1.2,0-3.6-4.7-1.3-5Z"/>
                <path class="st11" d="M246,72.6c2.9-1.1,2.4,3.8.6,3.8-.8,0-2.7-3-.6-3.8Z"/>
                <path class="st13" d="M261.8,73.9c1.7-.1,2.9,3.5,1.3,3.8-1.8.3-3.7-3.6-1.3-3.8Z"/>
                <path class="st7" d="M254.2,66.3c2.1-.2,2.5,3.6.6,3.8-2.1.2-2.4-3.6-.6-3.8Z"/>
                <path class="st7" d="M278.8,73.3c1.1-.8,4.1,3.8,1.9,4.4-.3,0-3.5-3.2-1.9-4.4Z"/>
                <path class="st13" d="M272.5,78.3c1.7-.3,3.2,3.3,1.3,3.8-1.4.4-3-3.5-1.3-3.8Z"/>
                <path class="st11" d="M288.8,72.6c1,1.3,4.5,3.3,2.5,5-1.3-1.5-3.8-2.7-2.5-5Z"/>
                <path class="st7" d="M262.4,64.4c1.4,0,4.6,3.7,2.5,3.8-1.4,0-4.6-3.7-2.5-3.8Z"/>
                <path class="st4" d="M315.3,124.9c.2,0,3.2,2.5,1.3,3.1-4.4,1.4-2.6-3.2-1.3-3.1Z"/>
                <path class="st11" d="M278.1,77.7c1-.8,3.3,3,1.3,4.4-1.4-.7-2.3-3.6-1.3-4.4Z"/>
                <path class="st7" d="M278.8,68.9c1.5.3,4.4,3.1,2.5,4.4l-2.5-4.4Z"/>
                <path class="st11" d="M248.5,65.7c2.1,0,1.3,4.5-.6,3.8-1.3-.5-.7-3.8.6-3.8Z"/>
                <path class="st24" d="M257.3,63.8c1.7,0,2.1,2.5,1.3,3.2-1.7,1.3-3.9-3.1-1.3-3.2Z"/>
                <path class="st6" d="M239.1,68.9c3.5.4-2.7,7-1.6,1.6,0-.1,1.5-1.6,1.6-1.6Z"/>
                <path class="st11" d="M250.4,69.5c1.3-.3,3.2,2.6,1.3,3.2s-2.9-2.8-1.3-3.2Z"/>
                <path class="st11" d="M268.7,65.1c1-.7,3.9,3.6,1.9,3.8-1.1,0-3.4-2.7-1.9-3.8Z"/>
                <path class="st11" d="M266.2,78.3c1.9,0,2.1,2.7.6,3.2-1.8.6-2.6-3.1-.6-3.2Z"/>
                <path class="st23" d="M302.1,124.9c1.2.2,1.9,4.1,0,3.8-2.2-.4-1.1-4,0-3.8Z"/>
                <path class="st7" d="M308.4,86.5c1.1.2,3.3,5.4,2.5,5.7-2-1-2-3.9-2.5-5.7Z"/>
                <path class="st7" d="M329.8,123c1.1.6.8,4.1.6,5-1.5-.3-1.5-4.1-.6-5Z"/>
                <path class="st6" d="M316.5,98.5c2.5-.2,2.4,2.4,1.3,3.8l-1.3-3.8Z"/>
                <path class="st11" d="M242.9,66.3c3.1-.6.8,2.7-.6,2.5-1.5-.2-.2-2.4.6-2.5Z"/>
                <path class="st11" d="M234.7,68.2l-.3,2.2-2.2,1.6c-1.4-.6,2.4-3.1,2.5-3.8h0Z"/>
                <path class="st6" d="M291,72c-1.2-1.2-2.3-1.4-3.8-2.2,3.5-2,3,.8,3.8,2.2Z"/>
                <path class="st6" d="M242.2,63.2c2.3,0-.5,2.5-1.3,3.1-1.2-.9.9-3.1,1.3-3.1Z"/>
                <path class="st24" d="M251.1,63.8c1.8-1.1,3,2.5,1.3,2.5-1.2,0-1.4-2.4-1.3-2.5Z"/>
                <path class="st7" d="M294.5,74.5c1.8-.5,1.8,1.9,2.5,3.2l-2.5-3.2Z"/>
                <path class="st7" d="M313.4,95.3c1.2-.6,2.2,2.3,1.3,3.2l-1.3-3.2Z"/>
                <path class="st17" d="M317.2,93.4c1.2,1,2.2,2.1,1.3,3.8l-1.3-3.8Z"/>
                <path class="st7" d="M304.6,83.3l1.3,3.8c-1.2-1-2.2-2.1-1.3-3.8Z"/>
                <path class="st11" d="M283.8,69.5c1.3-.1,3.1,2.5,1.9,3.2l-1.9-3.2Z"/>
                <path class="st24" d="M227.1,67.6c.3-.1,1.4,0,1.6.3l-2.8,2.8c-.7-.8.7-2.9,1.3-3.2h0Z"/>
                <path class="st24" d="M252.9,61.9c1.9-.4,2,1,1.3,2.5,0,0-1.3-2.5-1.3-2.5Z"/>
                <path class="st7" d="M246,63.8c1.9,0,.7,2.5,0,2.5-1,0-1.1-2.5,0-2.5Z"/>
                <path class="st7" d="M238.4,66.3c1.8,0,.1,2.1-1.3,2.5-1-.8,1.1-2.5,1.3-2.5Z"/>
                <path class="st24" d="M259.2,62.6c1.6-.6,2.2,1.3,1.3,1.9-.1,0-2.4-1.1-1.3-1.9Z"/>
                <path class="st24" d="M230.3,67.6c.7,0-.3,2.8-1.3,2.5-.5-.2.8-2.3,1.3-2.5Z"/>
                <path class="st7" d="M269.9,62.6c.1,0,2.4,2.1,1.3,2.5-.1,0-2.4-2.1-1.3-2.5Z"/>
                <path class="st6" d="M291,72c0,.1,2.2-.3.9,1.9-1-.4-.9-1.8-.9-1.9Z"/>
                <path class="st11" d="M275.6,70.1c.8-.7.7,2.8,0,2.5-.5-.2-.5-2.1,0-2.5Z"/>
              </g>
            </g>
            <path class="st23" d="M317.5,144.4c-.4,2.9.4,2,1.3,2.5-.8,1-.9,1.4-1.3,2.5-1.2-1.5-1.5-2.6-3.1-.6-2.4,2-3.7-3.3-6.6-1.9-1.8.9-3,7.4-5.7-1.3-.2-.1-3.2,2.2-3.5,2.5-.9-4-4.1-2.8-4.4.6-.8-.6-1.4-1.9-2.8-1.9-1.4.3-1.5,1.8-1.6,1.9-2.6-3.3-3.2-2.8-4.4,1.3-5.1-1.8-1.7.8-5.7,1.3,1.6-4.6-2.3-6.1-3.8-1.3-.8-.2-.4-1.8-2.8-.6-.7.3-.6,1.4-2.8,2.5,2-2.8-1.5-6.7-3.1-3.1-.7,0-3.3-.7-3.5-.6-1.6.6-1.5,1.8-1.6,1.9-3.9-4-3.6-.5-5,0-1.6.5-3.8,1.9-4.1,1.9-.5,0,.1-1.1-.9-1.9-4.1-3.2-2-.4-3.8-.6-2.1-.2-4.2-.4-6.3-.6-2.1-2.1-2.1-.5-3.8,1.3-.4-.3-1.6-2.1-2.8-1.9-.5,0-1.3,1.7-1.6,1.9-1.8-2.4-2.9-3.9-5-.6-.3-.3-2.7-1.9-2.8-1.9-1.6.6-1.2,1.3-1.6,1.9-.7-.2-1.5-2.5-2.2-2.5-.3,0-1.4,1.9-2.2,1.9-.5-.4-3.5.9-1.9-1.3.5-.6,2.6-.9,1.9-3.1.8,0,1.7,0,2.5,0,.7,2,6.8,3.9,5.7.6.2,0,1.1-.7,3.8,0,2,.5,3.2,3.2,5.4,2.5.4-.1-.2-2.6,5.7-1.9.3,0,4.7,4.5,4.7-1.3h3.1c1.6,3.4,5.8,4.4,6.3,0h3.8c-.8,4,6.8,3.9,6.3,0h3.1c1.6,4.6,4.9,5.8,5.7,0h5c0,4.5,3.6,3.2,4.4,0,8.3,0,25-1.3,32.1,0h0Z"/>
            <path class="st23" d="M324.4,143.8c7.5-.5,3.7,5.4,1.6,4.4-.7-.3-.6-2.9-1.6-3.1-1.9-.6-2.4,4.2-2.8,5.7-1.9,0-1.8-2.6-1.6-3.8.5-2.1,2.4-3,4.4-3.1h0Z"/>
            <path class="st4" d="M279.7,151.4c-2.7.3-2.6-1-3.8-1.3,1.5-4.8,5.4-3.3,3.8,1.3Z"/>
            <g>
              <path class="st9" d="M189,143.2v1.3c-.6,0-3.7.3-3.8.9,1.7,6.7,4.8,11.3,1.3.6,4,.3,2.3,7.8,4.7.9l2.5,8.2-.9-7.2,2.5,1.9.6-5.4c.6,0,1.3,0,1.9,0,0,2.9.5,5.6,2.8,7.6l.6-6.3c1.6.6,5.2,6.3,5.7,6.3s3.5-6.4,4.4-6.3c2.6-1.2-1.2,6,2.5,6.3,2.6.2,2-3.9,2.2-4.1.6-.6,1.8-.2,1.9-.3-1.6,2.2,1.4.8,1.9,1.3.2.2,2.2,4.5,2.8,4.4,1.8-1.5,1.4-3.6,1.6-3.8.4-.6,0-1.3,1.6-1.9.2,0,2.5,1.6,2.8,1.9.2.1,1.5,3.4,2.8,3.8.5-.9,1.5-2.6,2.2-3.1.2-.2,1.1-1.8,1.6-1.9,1.2-.2,2.4,1.6,2.8,1.9.3.3,1.6,3.7,3.5,3.1,1.1-.3,1.8-2.9.3-4.4,2.1.2,4.2.4,6.3.6-1.4,4.2,3.6,4.4,3.8.6,1.1.8.4,1.8.9,1.9.3,0,2.6-1.4,4.1-1.9,4,5.4,3,2.1,5,0s0-1.3,1.6-1.9c.2,0,2.7.7,3.5.6-1,2.1.5,4.5,3.1,3.1,2.2-1.1,2.1-2.2,2.8-2.5,2.4-1.1,2,.4,2.8.6,1.2.3,1,1.6,3.8,1.3,4-.5.5-3.1,5.7-1.3,1.1.4,1.8,2.1,2.8,1.9,1.1-.4,1.4-2.9,1.6-3.1.1-.1.1-1.6,1.6-1.9,1.4,0,2,1.3,2.8,1.9.2.1,1.4,2.8,2.8,2.5.8-.9.6-2.3,1.6-3.1.3-.3,3.3-2.6,3.5-2.5,2.7,8.6,3.9,2.1,5.7,1.3,2.9-1.4,4.2,3.9,6.6,1.9-1.5,1.8-1,5.4-.3,7.6,1.8-1.8,2.7-4.6,3.5-6.9.4-1.1.5-1.6,1.3-2.5.1,0,.5,0,.6,0h.6c-.3,1.1-.4,3.7,1.6,3.8.4-1.4,1-6.2,2.8-5.7-.5.9,0,4.8,0,5-.5,2.1-2.8,4-1.9,6.9-.3.1-1-.1-1.3,0-2.5.9-1.5,2.5-2.5,3.8-.8,1-1.9,1.8-2.5,2.5-1.1,1.4-2.1,3.9-3.1,5-.3.4-.9.8-1.3,1.3-2.7,3-7.1,8.3-10.1,10.7s-4.5,4.3-8.2,5c1.5-2.1,13.4-10.7,10.4-13.2-.9-.7-12.6,11.6-14.2,12.6-1.2,0-2,0-3.1,0,2.1-5.9-2.3-2.1-4.4,0-1.8,0-1.8-.6-1.9-.6,0-7.5-4.6,1.8-7.2,0-.4-.2-1.8-8.2-4.7-.6-.2,0-2.7.1-4.4,0,1.1-5.4-1.6-2.5-3.8-1.3-1.1.6-2.6,2.5-2.8,2.5-.4.1,0-1.4-.9-1.3,1.9-5.1-6.4-3-3.1.6-1.6.1-4.7,0-6.3,0,5-2.8-3.2-6.9-1.9-.6-.2,0-2.6.2-3.1,0,.4-1.2,4.6-7.6.9-7.6-1,0-5.7,8.2-7.2,7.9-.5-.1-3.1-3.5-3.5-3.5-1.1,0-.4,2.5-2.8,3.8-3-2.6-4-6.3-5.4.6-1.3-3.9-6-2.9-6.3-3.1-.4-.3-.2-3.1-2.5-4.4-1-.5-2.3,2.1-4.1-1.6-.1-.2,1.8-.2,1.3-1.3-1.2-2.5-5.2-2.3-3.1,1.9.3.6,10.3,8.9,11,9.1,2.1.6,7.1-.2,9.1-1.3.3.3-1.1,1-.3,1.3.2,0,4.4.5,5.4.6-7.5.5-16.5,1.2-23.9.6l3.1-1.6c-1.2-.4-1.3-.7-1.9-1.6,2.9.2,3.6,3.2,6.9,1.6-1.4-3-5.1-2-5.4-2.2-1.5-1.1-6.4-7.6-8.8-8.8-1.6.7,1.1,3.6,1.6,4.1,1.5,1.7,3.9,2.8,5.7,5.4-.2,0-.4,0-.6,0h-.6c-2-2.3-5.3-4.3-7.2-6.9l-2.2,2.5c-9.7-10.9-12.2-17.5-16.4-31.2-.4-1.4-.6-3.6-2.5-3.5,1.3,0,5.1-1.3,6.9-1.3h0Z"/>
              <g>
                <path class="st4" d="M241.9,183.5c-.4,1.1-1.1,1.1,0,2.5-2.4-.1-5.2.3-7.6,0-1-.1-5.1-.5-5.4-.6-.8-.3.6-1,.3-1.3,2.4-1.3,1.8-3.7,2.8-3.8.3,0,2.9,3.3,3.5,3.5,1.5.4,6.3-7.9,7.2-7.9,3.6,0-.5,6.3-.9,7.6h0Z"/>
                <path class="st16" d="M219.9,144.4c.7,2.3-1.4,2.6-1.9,3.1-.1.1-1.3-.3-1.9.3-.2.2.4,4.3-2.2,4.1-3.7-.3,0-7.5-2.5-6.3-.9,0-4,6.3-4.4,6.3s-4-5.7-5.7-6.3l-.6,6.3c-2.4-2-2.8-4.7-2.8-7.6,7-.2,15.1-.3,22,0h0Z"/>
                <path class="st4" d="M229.3,184.1c-2.1,1.1-7,1.9-9.1,1.3-.7-.2-10.7-8.5-11-9.1-2-4.2,1.9-4.4,3.1-1.9.5,1-1.4,1-1.3,1.3,1.8,3.7,3.1,1,4.1,1.6,2.4,1.3,2.1,4.1,2.5,4.4.3.2,5-.7,6.3,3.1,1.4-7,2.4-3.2,5.4-.6h0Z"/>
                <path class="st4" d="M293.6,185.4c-3.6.7-3.6-.6-3.8-.6,1.6-1,13.3-13.3,14.2-12.6,3,2.5-8.8,11.1-10.4,13.2h0Z"/>
                <path class="st11" d="M189,144.4c1.9-.2,4.6,0,6.9,0l-.6,5.4-2.5-1.9.9,7.2-2.5-8.2c-2.4,6.8-.7-.7-4.7-.9,3.5,10.6.5,6.1-1.3-.6.1-.6,3.2-.9,3.8-.9h0Z"/>
                <path class="st4" d="M314,159.6c1.6,6.1-5.1,9.9-8.2,14.5-3.3-2.5,6.6-12.1,8.2-14.5Z"/>
                <path class="st4" d="M280.3,184.1c-.4,0-3.5,1.2-3.8,1.9-1.5,0-3,0-4.4,0-.7-.4-3.6-2.5-3.8-2.5,2.9-7.5,4.4.4,4.7.6,2.7,1.8,7.3-7.5,7.2,0h0Z"/>
                <path class="st4" d="M307.4,179.1c-.3.3-.9-.7-.9-.6-1.1.9-4.2,5.3-4.7,1.9,3-2.4,7.4-7.7,10.1-10.7,1.3.4.4,2.7,0,3.5-.2.3-4.1,5.7-4.4,6h0Z"/>
                <path class="st13" d="M211.7,183.5c-1.8-2.5-4.2-3.7-5.7-5.4-.4-.5-3.2-3.4-1.6-4.1,2.4,1.3,7.4,7.7,8.8,8.8.3.2,3.9-.8,5.4,2.2-3.3,1.6-4-1.4-6.9-1.6h0Z"/>
                <path class="st7" d="M195.6,161.4c.7,1.4,13.3,12.3,11.3,13.2-1.5-.5-13.4-12.1-11.3-13.2Z"/>
                <path class="st4" d="M311.5,154.5c5.1,3-4,11-3.5,4.7,0-.8,2.9-3.6,3.5-4.7Z"/>
                <path class="st4" d="M317.5,149.5c-.8,2.3-1.6,5.1-3.5,6.9-.7-2.2-1.2-5.7.3-7.6,1.6-1.9,1.9-.9,3.1.6Z"/>
                <path class="st4" d="M287,166.5c2.8,0,1.2,6-1.9,6.3-4.8-1.6,1.1-6.3,1.9-6.3Z"/>
                <path class="st4" d="M319.7,150.7c.6,4.3-1.9,7.1-3.8,10.7-2-4,1.4-7.5,3.8-10.7Z"/>
                <path class="st13" d="M300.8,150.7c3.3.3,1.3,6.8-1.3,6.3-2.8-.6-1-6.5,1.3-6.3Z"/>
                <path class="st13" d="M278.1,157c3.3-.3,2.6,6-.6,5.7s-1.4-5.5.6-5.7Z"/>
                <path class="st2" d="M214.5,157c3.6.3,3.9,3.9,2.5,6.3-.5.2-5.6-5-2.5-6.3Z"/>
                <path class="st13" d="M259.2,157.7c4.2-.6,2,5.7,0,5.7s-2.9-5.2,0-5.7Z"/>
                <path class="st4" d="M298.6,148.2c-.9.8-.8,2.2-1.6,3.1-1.4.3-2.7-2.4-2.8-2.5.3-3.5,3.5-4.7,4.4-.6h0Z"/>
                <path class="st4" d="M241.9,148.9c1.5,1.5.8,4.1-.3,4.4-1.9.6-3.1-2.9-3.5-3.1,1.6-1.8,1.6-3.4,3.8-1.3h0Z"/>
                <path class="st13" d="M222.7,157c1.8-.5,5,5,1.9,5.7-2.1.5-4.6-5-1.9-5.7Z"/>
                <path class="st4" d="M282.5,162.1c3.9-.4,1.1,5.7-.6,5.7-2.9,0-1.8-5.4.6-5.7Z"/>
                <path class="st13" d="M292,161.4c2.7.4,1.2,5.5-.6,5.7-3.5.3-2-6.1.6-5.7Z"/>
                <path class="st13" d="M273.1,152.6c3.8-.7,2.9,4.8.6,5-2.6.3-3.6-4.5-.6-5Z"/>
                <path class="st13" d="M231.5,157.7c3.4-.8,3.6,5.4,1.3,5.7-.8,0-4.9-4.8-1.3-5.7Z"/>
                <path class="st13" d="M217.7,152c1.6-.6,5.1,5,1.9,5.7-1.9.4-4.4-4.8-1.9-5.7Z"/>
                <path class="st13" d="M228.4,162.1c1.3,0,4.2,5,1.3,5.7-2.5.5-4.6-5.7-1.3-5.7Z"/>
                <path class="st4" d="M306.5,161.4c3.5,0,0,6.2-2.5,6.3-1.6-1.3,1.5-6.3,2.5-6.3Z"/>
                <path class="st13" d="M233.7,150.1c-.7.6-1.7,2.3-2.2,3.1-1.3-.3-2.6-3.6-2.8-3.8,2.1-3.3,3.2-1.8,5,.6h0Z"/>
                <path class="st4" d="M280.6,172.1c4.8-.1.7,5.2-.6,5-2-.2-2.7-4.9.6-5Z"/>
                <path class="st13" d="M254.8,162.7c3.6-.6,2.6,4.8.6,5-2.5.4-3.6-4.5-.6-5Z"/>
                <path class="st4" d="M229.6,172.1c3.2-1.5,4.3,4.5,1.9,5-1.5.3-4.4-3.9-1.9-5Z"/>
                <path class="st13" d="M244.8,153.3c3.2-.9,4.3,4.8,1.3,5-2.1.2-3.9-4.3-1.3-5Z"/>
                <path class="st11" d="M235.9,152.6c1.3,0,4.3,5,1.3,5.7-2.6.6-4.3-5.6-1.3-5.7Z"/>
                <path class="st13" d="M227.1,152c2.8,0,2.6,10.3-2.2,3.5-.6-1,2-3.5,2.2-3.5Z"/>
                <path class="st4" d="M220.2,175.9c1.6-.6,5.2,4.7,2.5,5.7-.9.3-5.7-4.5-2.5-5.7Z"/>
                <path class="st4" d="M270.3,152c-2.7,1.4-4.2-1-3.1-3.1,1.7-3.6,5.2.3,3.1,3.1Z"/>
                <path class="st13" d="M215.1,171.5c1.2-.5,5.5,4.6,2.5,5.7-1.5.5-5.1-4.7-2.5-5.7Z"/>
                <path class="st13" d="M224.3,149.5c-.1.2.2,2.3-1.6,3.8-.6,0-2.6-4.2-2.8-4.4.8,0,1.9-1.9,2.2-1.9.7,0,1.5,2.3,2.2,2.5h0Z"/>
                <path class="st2" d="M250.4,157.7c2.5,0,2.4,5.7,0,5.7-2.8,0-2.7-5.7,0-5.7Z"/>
                <path class="st13" d="M264.3,152.6c2.5,0,2.5,5.7,0,5.7-2.8,0-2.7-5.7,0-5.7Z"/>
                <path class="st4" d="M295.8,156.4c3.4-.5,1.9,5.9,0,5.7-1.7-.2-2.6-5.3,0-5.7Z"/>
                <path class="st4" d="M304.6,155.8c2.9.3.5,6.7-1.9,5.7-2.5-1.1,1.1-5.8,1.9-5.7Z"/>
                <path class="st11" d="M203.2,151.4c1.6-.6,4.5,4.8,1.9,5.7-1.5.5-4.3-4.8-1.9-5.7Z"/>
                <path class="st4" d="M290.1,171.5c3.7,0-.6,5.1-2.5,5.7-3.7-1.1,2.1-5.7,2.5-5.7Z"/>
                <path class="st2" d="M263.6,162.7c3.2-.3,3.2,5.3,0,5-2.3-.2-2.4-4.8,0-5Z"/>
                <path class="st13" d="M236.6,162.7c2.9-.9,3.8,4.6,1.3,5s-3.4-4.4-1.3-5Z"/>
                <path class="st13" d="M268.7,157.7c2.6.2,2.6,5.4-.6,5-2.8-.3-1.9-5.2.6-5Z"/>
                <path class="st4" d="M289.8,148.9c-.2.2-.5,2.7-1.6,3.1-1,.2-1.7-1.5-2.8-1.9,1.2-4.1,1.9-4.6,4.4-1.3h0Z"/>
                <path class="st4" d="M262.1,150.1c-2.1,2.1-1.1,5.4-5,0,1.4-.5,1.1-4,5,0Z"/>
                <path class="st11" d="M254.2,153.3c3.8-.9,2.8,5.1.6,5-1.3,0-3.6-4.3-.6-5Z"/>
                <path class="st11" d="M207.6,156.4c.5.7,2.7,2.3,2.8,2.8,1.8,6.4-6.4,1.4-2.8-2.8Z"/>
                <path class="st13" d="M287.6,157c3.4-.3,1.9,5.5-.6,5-2.7-.4-1-4.9.6-5Z"/>
                <path class="st13" d="M240.3,158.3c3.7-.8,3.6,5,1.3,5-.7,0-4.6-4.3-1.3-5Z"/>
                <path class="st13" d="M220.8,162.1c1.9,0,3.2,5.6.6,5.7-2.4,0-3.3-5.7-.6-5.7Z"/>
                <path class="st13" d="M273.1,162.1c2.8,0,2.1,6-1.3,5-2.8-.8.1-5,1.3-5Z"/>
                <path class="st13" d="M225.2,167.1c2.4-.4,3.4,5.2,1.3,5.7-.9.2-4.8-5.1-1.3-5.7Z"/>
                <path class="st13" d="M222.1,171.5c.2,0,3.4,2.6,3.5,2.8,1.5,6.5-8.5-2.1-3.5-2.8Z"/>
                <path class="st4" d="M238.4,171.5c1.3,0,3.6,4.3.6,5-3.8.9-2.8-5.1-.6-5Z"/>
                <path class="st4" d="M297,171.5c1.2,0,1.6,1.9,1.6,2.8-8.7,7.1-3.1-2.8-1.6-2.8Z"/>
                <path class="st11" d="M254.2,172.1c3.9-1.2,3.4,4.4.6,4.4-2.4,0-2.9-3.7-.6-4.4Z"/>
                <path class="st4" d="M275.6,176.6c4.8-.4,0,5.1-.6,5-.7-.1-3.6-4.7.6-5Z"/>
                <path class="st13" d="M242.2,167.1c1.5,0,3.1,4.3.6,5-3.7,1.1-2.9-5.1-.6-5Z"/>
                <path class="st13" d="M233.4,167.1c.7,0,4.6,4.2,1.3,5s-3.3-5-1.3-5Z"/>
                <path class="st13" d="M251.1,167.1c2.1.3,1.8,5-.6,5-3.1,0-2-5.4.6-5Z"/>
                <path class="st4" d="M268,167.1c3.1-.2,2,5.5-.6,5s-.9-4.9.6-5Z"/>
                <path class="st11" d="M210.1,151.4c2.2,2.1,4.1,3.2,1.9,6.3-2.2-2.1-4.1-3.2-1.9-6.3Z"/>
                <path class="st4" d="M258.6,175.9c3.3-.4,2.4,4,.6,4.4-3.4.9-3-4.1-.6-4.4Z"/>
                <path class="st4" d="M283.2,152c2.4,0,2.5,5.4-.6,5-3.3-.4-.8-5,.6-5Z"/>
                <path class="st13" d="M291.4,152c2.7-.8,3.9,3.8,1.3,4.4-3,.7-3.3-3.8-1.3-4.4Z"/>
                <path class="st11" d="M246,162.7c1.8,0,3.2,4.6.6,5-2.8.5-3.3-5-.6-5Z"/>
                <path class="st13" d="M212,161.4c.2,0,2.8,2.9,2.8,3.5,1.1,6.9-6.8-2.3-2.8-3.5Z"/>
                <path class="st4" d="M252,150.1c-.2,3.8-5.2,3.5-3.8-.6,1.8.2-.3-2.6,3.8.6Z"/>
                <path class="st4" d="M301.4,167.1c3.9-.3.2,5.1-1.3,5.7-2.3-.9.2-5.6,1.3-5.7Z"/>
                <path class="st4" d="M246.6,171.5c2.6,0,2.2,5.5-.6,5s-.8-5,.6-5Z"/>
                <path class="st4" d="M271.8,172.1c4.2-.7,2.1,4.9-.6,4.4-2.4-.4-1-4.1.6-4.4Z"/>
                <path class="st4" d="M234.7,176.6c2.9-.7,3.5,3.7,1.9,4.4-2,.9-5-3.7-1.9-4.4Z"/>
                <path class="st4" d="M277.5,167.1c2.9,0,1.8,5.2-.6,5-3.1-.2-1.1-5,.6-5Z"/>
                <path class="st13" d="M259.2,167.1c3.3-.3,1.8,5.1,0,5-2.1,0-2.6-4.8,0-5Z"/>
                <path class="st4" d="M292,176.6c4.8,0-4.6,9.1-3.5,3.5,0-.2,3.2-3.5,3.5-3.5Z"/>
                <path class="st4" d="M263.6,171.5c1.9,0,2.2,5.3-.6,5-3.2-.3-.9-5,.6-5Z"/>
                <path class="st11" d="M205.7,161.4c1.6.9,4.3,4.9,2.5,6.3-.4.3-5.4-4.6-2.5-6.3Z"/>
                <path class="st13" d="M217,167.1c.2,0,3.4,3.2,3.5,3.5.6,5.6-7.4-2.5-3.5-3.5Z"/>
                <path class="st13" d="M210.1,167.1c2.4.1,4.7,5.1,2.5,5.7-.4.1-5.1-4.3-2.5-5.7Z"/>
                <path class="st4" d="M295.1,166.5c3.7-.2-.4,5.5-1.9,5-2.7-.9,1.3-5,1.9-5Z"/>
                <path class="st4" d="M284.4,176.6c2.7.9-.5,5.3-1.9,5-3.3-.6.7-5.4,1.9-5Z"/>
                <path class="st4" d="M250.4,175.9c2.3-.2,2.9,3.9.6,4.4-3.3.8-2.8-4.2-.6-4.4Z"/>
                <path class="st4" d="M256.4,183.5c-.9.1-1.7.5-3.1.6-3.3-3.6,5-5.7,3.1-.6Z"/>
                <path class="st4" d="M227.1,175.9c.3,0,4.7,4.1,1.9,5-2,.6-4.8-4.8-1.9-5Z"/>
                <path class="st4" d="M309,150.1c2.9,0,.5,5.7-1.3,5-2.5-.9.3-5,1.3-5Z"/>
                <path class="st4" d="M246.9,184.1c-1.2,0-1.2-.5-1.9-.6-1.3-6.3,6.9-2.2,1.9.6Z"/>
                <path class="st4" d="M286.6,184.8c-1.5,0-2.9,0-4.4,0,2.1-2.1,6.6-5.9,4.4,0Z"/>
                <path class="st4" d="M298.9,162.1c3.8-.6,1.2,5.1-.6,4.4s-.7-4.2.6-4.4Z"/>
                <path class="st4" d="M264,183.5c-.8,0-3.6,2.1-3.8-1.3,2.1-1.2,4.9-4.2,3.8,1.3Z"/>
                <path class="st4" d="M266.8,176.6c3.3-.2,2.6,3.6.6,3.8s-4-3.6-.6-3.8Z"/>
                <path class="st7" d="M200.7,156.4c.3-.2,5.1,3.2,3.1,5-.7.5-5-3.8-3.1-5Z"/>
                <path class="st7" d="M199.4,160.2c.8.9,4.9,5.1,3.1,6.3-1.5-.3-4.5-5.7-3.1-6.3Z"/>
                <path class="st6" d="M196.9,151.4c2.6.3,3.5,3.3,1.9,5l-1.9-5Z"/>
                <path class="st6" d="M190.6,155.1c1.6-.9,4.6,5.6,3.1,6.3,0-1-3.9-5.9-3.1-6.3Z"/>
                <path class="st11" d="M205.1,166.5l1.9,5c-.2.2-4-3.8-1.9-5Z"/>
                <path class="st6" d="M200,169.6c.2,0,3,3.7,2.5,4.4l-4.1-3.5c.6-.1,1.5-1,1.6-.9h0Z"/>
                <path class="st6" d="M193.7,165.9c.5,1.9,3.4,3.6,3.1,5.7-.6-.3-4.8-5.2-3.1-5.7Z"/>
                <path class="st6" d="M194.7,165.2c-1-1.2-4.1-1.8-2.8-4.4.7-.3,2.5,4,2.8,4.4Z"/>
                <path class="st6" d="M194.7,165.2c.5.5,3.8,2.1,2.8,3.8-1.5-.3-2.2-2.9-2.8-3.8Z"/>
                <path class="st7" d="M195.6,157c1.9-1,2.2,3.8,1.9,3.8l-1.9-3.8Z"/>
                <path class="st7" d="M198.1,172.1c.7,1.1,3.3,2.2,2.5,3.8-.7-1.1-3.3-2.2-2.5-3.8Z"/>
                <path class="st4" d="M211.1,183.5c-1.6,3-.5.1-.6,0h.6Z"/>
              </g>
            </g>
            <path class="st4" d="M263.3,144.4h3.8c.5,3.9-7,4-6.3,0h2.5Z"/>
            <g>
              <path class="st6" d="M306.2,187.3c0,0-1-.5-1.3-.6,0,0-1.8-.6-1.9-.6,3.6-4.1,11.3-9.5,13.9-14.2.2-.4,2.1-3.6.3-3.5-2.4,4.4-6.3,7.3-9.8,10.7.3-.2,4.2-5.7,4.4-6,.4-.7,1.3-3,0-3.5.4-.5.9-.9,1.3-1.3,1,3.3,6.2-4.6,3.1-5,.6-.8,1.7-1.5,2.5-2.5,3.7,1.6,2.3-.9,2.5-3.8.3-.1,1,.1,1.3,0,0,0-.2,1.8.6.9.4-1.8,2-4.1,2.5-5.7.2-.5,0-5.7-1.3-2.2,0-.2-.5-4.2,0-5,.9.3.8,2.8,1.6,3.1,2.1,1,6-4.9-1.6-4.4,5.6-2.9,13.9.1,15.1-8.2,1.1,8.5-5.2,6.2-7.6,9.1-.8,1-2.2,9.2-3.1,11.3-5.3,11.8-12.6,22.9-22.7,31.2h0Z"/>
              <g>
                <path class="st11" d="M322.5,157c-1-2.9,1.4-4.9,1.9-6.9,1.3-3.5,1.4,1.7,1.3,2.2-.5,1.6-2.2,3.9-2.5,5.7-.9.8-.6-1-.6-.9h0Z"/>
                <path class="st35" d="M313.1,168.4c1-1.1,2-3.6,3.1-5,3,.4-2.1,8.3-3.1,5Z"/>
                <path class="st4" d="M321.3,157c-.2,2.9,1.2,5.3-2.5,3.8,1-1.2,0-2.9,2.5-3.8Z"/>
                <path class="st4" d="M303,186c-.4,0-.9,0-1.3,0,.7-2.6,3.8-5,5.7-6.9,3.5-3.4,7.4-6.3,9.8-10.7,1.8,0,0,3.1-.3,3.5-2.5,4.7-10.2,10.1-13.9,14.2h0Z"/>
                <path class="st23" d="M326.6,150.7c2.6.8-.8,8.6-1.9,8.2l1.9-8.2Z"/>
              </g>
            </g>
            <g>
              <path class="st32" d="M329.5,134.4c2.9.6,4,.7,1.6,3.1-13,.1-26.1-.4-39,0-.5,0,.2,1.2-1.3,1.3-.2,0-.5-2.2-3.1-1.3-.4.1,1,1.8-1.3,1.9-.9,0-5.9-1.3-6.9-1.3-2.1,0-4.9.7-7.6.6-.5,0-.2-1.3-.6-1.3-.3,0-.9,2.4-1.3,2.5-5.6,1.9-23.8-1.6-31.2,1.9-16.5.2-33.1,1.2-49.8,1.3-1.8,0-5.6,1.3-6.9,1.3-2.3,0-3.8-.4-5.7-1.9,1.6-4.9,3.4-3.5,5.7-5.7,3.8,1.2,18.2-1.9,20.5-.6,1.3.7-1.8,2.2,3.1,2.5,11.1.7,28.4-2.2,40.6-2.5,17.8-.5,70.6-4.3,83.1-1.9h0Z"/>
              <path class="st19" d="M329.5,131.8v2.5c-12.5-2.4-65.3,1.4-83.1,1.9.1-2-.8-1.9,1.3-2.2,19.6-3,47.5-.4,68-.9,4.7-.1,8.5-1.3,13.9-1.3h0Z"/>
              <path class="st32" d="M182.1,136.9c-2.3,2.2-4.1.7-5.7,5.7-2.6-2-4.6-8.8-2.2-10.1,2.7-1.5,5.4,5,7.9,4.4Z"/>
              <path class="st25" d="M238.8,141.9c2.2,0,27.9.2,27.7,1.6l-3.1.9h-15.7c-5.2,0-10.6-.5-15.8.6-2.7-.7-3.6,0-3.8,0-2-.3-3.6-.5-5.7-.6-.8,0-1.7,0-2.5,0-7-.3-15.1-.2-22,0-.6,0-1.3,0-1.9,0-2.3,0-5-.2-6.9,0v-1.3c16.7,0,33.2-1.1,49.8-1.3h0Z"/>
              <g>
                <path class="st38" d="M337.6,131.8c1.1,1.8,1.4,0,1.9,3.8-1.2,8.3-9.5,5.3-15.1,8.2-2,.1-3.9,1-4.4,3.1h-.6c-.5-1.1.7-2.1.6-2.2-.6-.6-1.7-.2-2.5-.3-7.1-1.3-23.8,0-32.1,0h-22.1l3.1-.9c.2-1.4-25.5-1.6-27.7-1.6,7.4-3.5,25.6,0,31.2-1.9.4-.1.9-2.5,1.3-2.5.4,0,.2,1.2.6,1.3,2.7,0,5.5-.6,7.6-.6,1.1,0,6,1.3,6.9,1.3,2.2-.1.9-1.7,1.3-1.9,2.6-1,3,1.3,3.1,1.3,1.5,0,.7-1.2,1.3-1.3,13-.4,26.1.1,39,0,2.4-2.5,1.4-2.6-1.6-3.1v-2.5c2.7,0,5.6.4,8.2,0h0Z"/>
                <path class="st4" d="M319.4,147c-.2,0-.5,0-.6,0-.9-.6-1.7.4-1.3-2.5.8.1,1.9-.3,2.5.3,0,0-1.1,1.1-.6,2.2h0Z"/>
                <path class="st0" d="M281.3,141.3h16.4l16.1.9c-10.6-.8-22,2.1-32.4-.9Z"/>
              </g>
              <path class="st16" d="M275.9,144.4c-.7,5.8-4,4.6-5.7,0h5.7Z"/>
              <path class="st16" d="M285.4,144.4c-.9,3.2-4.3,4.5-4.4,0h4.4Z"/>
              <path class="st4" d="M247.6,144.4c0,5.8-4.4,1.3-4.7,1.3-5.9-.7-5.2,1.8-5.7,1.9-2.1.7-3.4-2-5.4-2.5,5.1-1.1,10.6-.6,15.8-.6h0Z"/>
              <path class="st4" d="M257,144.4c-.5,4.4-4.8,3.4-6.3,0h6.3Z"/>
              <path class="st4" d="M228.1,145.1c1.2,3.2-5,1.4-5.7-.6,2.1.1,3.7.4,5.7.6Z"/>
            </g>
          </g>
          <g>
            <path class="st4" d="M295.5,238.3c0,.3-1.2,1.2-1.3,1.3-5.4,1.2-1.6.6-3.1,2.2-.6.6-3.7,3.5-3.8,3.8-.8,2.7-1.7,27.7-1.9,32.7-1.5,31.9-1.1,66.4-2.5,99.5-1.2,28.7-5.5,57.5-4.4,86.3.1.5,1.2.2,1.3.3,0,.2,2.2.9,1.3,3.5-1.4,3.9-15.8-1.1-18.3,4.1-5.9.2-12.7.4-17.9.6-9,.4-8-5.4-9.1-12.6l2.8-1.9c.5.4.1,7.4,3.5,5.7,2.4,1.8,18.1,3,15.7-3.8.9-4-.6-11.3-.6-15.8,0-38.4-1.2-76.8-1.3-115.3,3.7.6,13.4-.3,10.7-5.7,3-3.9.9-6.5,1.3-9.1,0-.2,1.8-1.6,1.9-3.5.2-3.3-1.3-3.6-1.3-3.8,0-1.5,0-3,0-4.4.5-18.8.6-37.5,0-56.4-4.5-5.2-16.2-5.7-18.3,1.6-.3,0-1.2-1.2-1.3-1.3-.7-1.3-1.6-5.8-1.9-6-1.6-1.1-3.6.3-3.8.3-1.5,0-2.9,0-4.4,0v-1.3c16.2-.2,41.8,1.2,56.7-1.3h0Z"/>
            <path class="st23" d="M221.1,238.9c5.9.2,11.7.7,17.6.6v1.3c-4.8,0-9.7-.2-14.5.3-1.8,1,.4,14.2.6,17.3,3.5,46.4,7.2,92.8,10.7,139.2,1.3,17.5.5,46.6,4.4,62.4.6,2.3-.7,1.9,1.9,3.8-3.3,1.7-3-5.3-3.5-5.7l-2.8,1.9c-10.9-70.1-10.2-145.9-19.5-216.7l.9-5c1.6.5,2.5.6,4.1.6h0Z"/>
            <path class="st4" d="M262.7,472c2.5-5.2,16.9-.2,18.3-4.1.9-2.5-1.2-3.3-1.3-3.5l14.5-224.9c0,0,1.2-.9,1.3-1.3,1.8-.3,3.5-.8,5.4-.6l1.6-1.6c.3-1.1-1.3-1.5-1.3-1.6,0-.5.5-.8.6-1.9,3.7,1.8-.1,6-.6,9.8-9.4,73.7-9.8,150.8-18.9,224.8-1.9,5.5-14.5,4.5-19.5,4.7h0Z"/>
            <path class="st16" d="M274,219.4c5,0,10.1-.1,15.1,0,2.2,0,13.3-.7,13.9.9-.9,4-.8,8.2-1.3,12.3-.1,1.1-.6,1.3-.6,1.9-8.2,2-16.7,2.1-25.2,2.5v-1.3c2.1-.1,4.2.2,6.3,0s13.1-.8,13.9-2.2c.3-.6.8-12.5.3-12.9-9.8-3.8-5.4,11.4-8.2,12.6-1,.4-7.8-.2-9.8,0-3.6.3-7,.5-10.7.6.2-2.4-3.1-.6-3.8-1.6-.6-.9.7-10.3-.3-11-.9-.6-11.7,0-13.5-1.3,8,0,16-.6,23.9-.6h0Z"/>
            <path class="st0" d="M306.2,187.3c5.4,7.2-11.4,24,0,29.9-5.3.1-12.6-.7-17,2.2-5-.1-10.1,0-15.1,0-8.3-3.8-25.6,1-33.1-1.3-.6-.2-.2-1.2-.3-1.3,8.2,0,16.4.1,24.6,0,4,0,8,.1,12,0,3.5-.1,7.2-.4,10.7-.6,4.4-.2,8.9.6,13.2-.9,0-2.2.5-7.8-1.3-9.4-1.9-1.8-4.1-.6-6.3-.9-6.2-.8-12.7.1-18.9,0-8.7-.2-17.5.2-26.1,0-2.2,0-8.8-.3-10.4-1.9,1.7-.1,2.7-.2,4.4-.6,4.9,1,10.2.8,15.1.6,11.7-.3,26.3,1.1,37.2,0,1.2-.1,4,.3,4.7,0,2.4-1,6.5-13.1,5.4-16.4.2.1,1.2.6,1.3.6Z"/>
            <path class="st23" d="M213.6,215c1.3-.2,3.7.8,5,1.3.2,1-14.5,1.5-4.7,3.8,6.5,1.5,28,0,36.2,0,1.8,1.3,12.6.6,13.5,1.3,1,.7-.3,10.1.3,11,.7,1,4-.8,3.8,1.6-3.4.1-6.7.8-10.1.6.7-.2,5.5-1.3,5.7-1.6.2-.3.2-6.6,0-6.9-.5-.8-2.6.1-3.1-.6-.3-.5.5-2.9-.3-3.5-.5-.4-10.3-.5-12.3-.6-2.7-.1-23.7-.5-24.9,0-1.9.8-.9,12.1,0,13.2,1.8,2.3,16.9.3,20.1,1.9l33.1-.6v1.3c-17.8.9-35.5.3-53.2.6-.8,0-3.4-.2-1.6,1.3-1.6,0-2.5-.1-4.1-.6l-.9,5c.4-3.8-2.9-5.2-3.1-6-.5-1.3,1.5-4.1,1.9-6.6l1.3-.9c-.7,5.6-1.3,6.5,5,6.3l-4.4-1.9c6.8.8,2.8-8.1,3.1-12.6-5.2-2.1-4.4,2.8-5,6-.6-1.3-.4-5.4-.6-6-.2-.5-9.5-5.4-.6-6.6h0Z"/>
            <path class="st18" d="M242.5,202.4c-1.7.4-2.7.5-4.4.6-4.4.4-11.3.6-15.8.6-.5-.9-5.4-1.8-5.7-2.2s.3-2.8,0-3.1c-1.3-1.8-2.8-4.1-3.8-5.4,2.4.6,10.6.6,12.3,1.3,5,1.8,6.9,13.9,15.4,4.1,1.7-2-1.4-3.6,5-5.4.5-.1,3.1.6,4.7,0,.4-.2,7.1-5.8,7.9-4.1-2.5,3.9-6.7,5.9-10.1,8.8-3.1,2.6,1.4,3-5.7,4.7h0Z"/>
            <path class="st19" d="M212.9,192.9c1,1.3,2.4,3.5,3.8,5.4.3.4-.3,2.7,0,3.1s5.2,1.3,5.7,2.2c-.8,0-1.7,0-2.5,0-1.5,0-6.4.3-7.2,0-1.2-.5-3.1-7.3-4.7-8.2-.5-2.7-1.2-4.2.3-6.9,2.4,1.1,3.2,2.5,4.7,4.4h0Z"/>
            <path class="st38" d="M219.9,203.6c-2.8,2.8-.4,6.9-.6,9.4,0,.2-2.3-.4-.6,3.1-1.3-.5-3.8-1.4-5-1.3,2.1-7.6-4.5-13.1-5.7-19.5,1.6.9,3.6,7.7,4.7,8.2.8.3,5.7,0,7.2,0h0Z"/>
            <path class="st23" d="M214.8,230.7c.1-1-.2-2.2,0-3.1.7-3.2-.1-8,5-6-.3,4.5,3.7,13.4-3.1,12.6l4.4,1.9c-6.3.2-5.7-.7-5-6.3l-1.3.9h0Z"/>
            <path class="st38" d="M242.2,475.7c2.7-1.6,2.6,9.8,2.5,10.7l-2.5-10.7Z"/>
            <path class="st14" d="M248.8,246.5c0,22.1-2.2,45-.6,67.1.3,4.2.2,8.9,2.5,12.3.8,16.9-1.2,34.4,0,51.3,0,.6,1.8,0,1.9.6.2,1.9.8,10.2.6,11.3-.2,2-2.4,2.1-2.5,3.1-1.3,19.9,2.3,41.5,0,61.7,2,.2,1.9,1.1,2.5,2.8,1,2.8.7,6.1.9,6.3,1.7.9,3.2-2,3.5-3.1,2.4,6.8-13.3,5.6-15.8,3.8-2.6-1.9-1.3-1.5-1.9-3.8,6.8,3.1,3.2-4.5,3.1-6.6-.1-6.5.8-13,.6-19.5,0-.5-1.2.4-1.3-1.9,0-.5,1.3.2,1.3-1.3-.2-5.5-1-10-1.3-14.8,3.7-.5,2-2.5,2.5-3.1.4-.5,2.9-2.7,3.8-2.8.3-22.3-2-44.5-2.5-66.5-.4-19.1-.5-38.2-.6-57.3,0-10,1.4-23.7.6-33.1-.1-1.5-.5-7.8-.6-8.2-.1-.3-4.9-1.4-2.5-4.1.2,0,2.1-1.4,3.8-.3.3.2,1.2,4.7,1.9,6h0Z"/>
            <path class="st6" d="M294.2,239.5l-14.5,224.9c0,0-1.1.2-1.3-.3-1.1-28.7,3.2-57.6,4.4-86.3,1.4-33.1,1.1-67.7,2.5-99.5.2-5,1.1-30.1,1.9-32.8,0-.3,3.2-3.2,3.8-3.8,1.5-1.6-2.3-1,3.1-2.2h0Z"/>
            <path class="st6" d="M253.9,328.4c.8.3.9.5,1.9.6,0,38.4,1.3,76.8,1.3,115.3-4.8,1.7-1.2,9.5-3.8,12.6-.6-1.8-.5-2.6-2.5-2.8,2.3-20.2-1.3-41.8,0-61.7,0-1,2.3-1.1,2.5-3.1.1-1.2-.5-9.4-.6-11.3,0-.6-1.9,0-1.9-.6-1.2-16.9.8-34.4,0-51.3.1.2,2.8,2.4,3.1,2.5h0Z"/>
            <path class="st9" d="M238.8,240.8c1.5,0,2.9,0,4.4,0-2.3,2.7,2.4,3.8,2.5,4.1.1.4.5,6.7.6,8.2.8,9.3-.7,23-.6,33.1l-1.3-1.3c-.2-12.6-2.1-25.4-1.3-38.1-1.5-2.6-8.6-2.6-9.4,0-.7,2,1.6,36.8,1.9,42.2.5,9.1,2.6,19.2,3.1,28.7.3,5.4.3,10.9.6,16.4h-3.1c-1.8-23.8-1.1-61.7-5.7-83.4,0-.3-2.5-5.9-2.8-6-5.6-1.1-.5,11.1-2.8,13.9-.2-3.1-2.4-16.3-.6-17.3,4.8-.5,9.7-.4,14.5-.3h0Z"/>
            <path class="st19" d="M268.4,302.5h-1.9c.3-4.1-.3-8.4,0-12.6,0-.1,1.2-2,1.3-2.2.6-12.6-.5-25.2-.6-37.8l-6.6-.3c1.8,7.2-3.8-.7-4.7,7.9,2.9-.3,5.6-1.2,7.6.9-10.9-4-11.6,8-10.1,15.8l-2.5-.3c.5,3.5-.5,7-.6,10.4.4-10.2-2.7-27.1,0-36.5,2.1-7.3,13.7-6.8,18.3-1.6.6,18.8.5,37.5,0,56.4h0Z"/>
            <path class="st15" d="M250.1,247.7c-2.7,9.5.4,26.4,0,36.5-.3,5.7-.3,12,.6,17.6v.6c0,1.4,0,2.7,0,4.1l17.6.3c0,.2,1.5.5,1.3,3.8l-18.6-1.3c-2.1.9.3,3.4.3,3.8,0,1.9-1.1,4.3-.6,6.6.7,3.2,4.5,3.7,3.1,8.5-.4-.1-3-2.3-3.1-2.5-2.3-3.4-2.2-8-2.5-12.3-1.6-22,.7-45,.6-67.1,0,0,1,1.2,1.3,1.3h0Z"/>
            <path class="st37" d="M266.5,323.3c2.7,5.3-7,6.3-10.7,5.7-1-.2-1.1-.3-1.9-.6,1.3-4.8-2.4-5.3-3.1-8.5-.5-2.4.5-4.7.6-6.6,9.5.5,14.9.1,12.6,11.6.5.9,2.3-1.3,2.5-1.6h0Z"/>
            <path class="st19" d="M301.1,234.5c0,.1,1.6.5,1.3,1.6l-1.6,1.6c-1.9-.2-3.6.3-5.4.6-14.8,2.5-40.5,1-56.7,1.3-6,0-11.7-.4-17.6-.6-1.8-1.5.8-1.2,1.6-1.3,17.8-.3,35.5.2,53.2-.6,8.5-.4,16.9-.5,25.2-2.5h0Z"/>
            <path class="st38" d="M269.6,310.7c-.1,1.9-1.9,3.3-1.9,3.5-.4,2.7,1.7,5.2-1.3,9.1-.2.3-2,2.4-2.5,1.6,2.3-11.5-3.1-11.1-12.6-11.6,0-.4-2.4-2.9-.3-3.8l18.6,1.3h0Z"/>
            <path class="st37" d="M266.5,302.5h1.9c0,1.5,0,3,0,4.4l-17.6-.3c0-1.4,0-2.7,0-4.1,5.2.1,10.5,0,15.8,0h0Z"/>
            <path class="st23" d="M257,444.2c0,4.5,1.5,11.8.6,15.8-.3,1.2-1.8,4.1-3.5,3.1-.3-.2,0-3.5-.9-6.3,2.6-3.1-1-10.9,3.8-12.6h0Z"/>
            <path class="st12" d="M236.2,334c1.4,18.3,2.6,36.5,3.8,54.8-1.3,5.4.8,5.7-4.4,8.8-3.5-46.4-7.2-92.8-10.7-139.2,2.3-2.8-2.8-14.9,2.8-13.9.3,0,2.8,5.7,2.8,6,4.5,21.7,3.9,59.7,5.7,83.4h0Z"/>
            <path class="st19" d="M242.5,415.9c.3,4.8,1.1,9.3,1.3,14.8,0,1.4-1.3.8-1.3,1.3,0,2.3,1.2,1.4,1.3,1.9.2,6.5-.8,13-.6,19.5,0,2.1,3.7,9.8-3.1,6.6-3.9-15.8-3.1-44.9-4.4-62.4,5.2-3.1,3.1-3.5,4.4-8.8.6,9,2,18,2.5,27.1h0Z"/>
            <path class="st9" d="M247.6,221.3c-.7,3.2,2.8,2.2,3.1,2.8.7,1.2-1.4,8.6-.6,10.7,2.6.8,5,.2,7.6-.3,3.4.1,6.7-.5,10.1-.6,3.6-.1,7.1-.3,10.7-.6l3.8,2.5c-2.1.2-4.2-.1-6.3,0l-33.1.6c-3.2-1.6-18.3.4-20.1-1.9-.9-1.1-1.9-12.4,0-13.2,1.1-.5,22.2-.1,24.9,0h0Z"/>
            <path class="st21" d="M230.6,205.5c2,1.7,7.7-.3,9.4.9.5.4,6.1,11.7-.6,9.4l1.3.9c.1.1-.3,1.1.3,1.3,7.5,2.3,24.7-2.6,33.1,1.3-7.9,0-15.9.6-23.9.6s-29.7,1.5-36.2,0c-9.8-2.3,4.9-2.8,4.7-3.8-1.7-3.6.6-2.9.6-3.1-.3,1.7,4,4,4.7,3.8-1.8-2.9.2-10,2.5-11.3.2-.1,3.1.2,4.1,0h0Z"/>
            <path class="st23" d="M282.2,235.8l-3.8-2.5c2-.2,8.8.4,9.8,0,2.8-1.2-1.7-16.4,8.2-12.6.5.4,0,12.3-.3,12.9-.7,1.4-11.7,2-13.9,2.2h0Z"/>
            <path class="st32" d="M294.8,203c-10.8,1.1-25.5-.3-37.2,0,2-7.8,7.5-14.6,16.1-14.5.5,0,.1,1.2.6,1.3,1.3.1,4.8-.8,6.3,0,3.4,1.8,2.5,12.1,3.1,12.6,1,.7,9.2-1,11,.6h0Z"/>
            <g>
              <path class="st19" d="M272.1,186c1.5,0,3,0,4.4,0,7,.1,19-.7,25.2,0,.4,0,.9,0,1.3,0,.1,0,1.8.6,1.9.6,1.2,3.2-3,15.4-5.4,16.4-.7.3-3.5-.1-4.7,0-1.8-1.6-10,.1-11-.6-.7-.5.2-10.8-3.1-12.6-1.5-.8-5,.1-6.3,0-.5,0-.1-1.2-.6-1.3-8.6-.1-14,6.7-16.1,14.5-4.9.1-10.2.4-15.1-.6,7.1-1.8,2.6-2.1,5.7-4.7,3.4-2.9,7.5-4.9,10.1-8.8-.8-1.7-7.4,3.9-7.9,4.1-1.7.6-4.2-.1-4.7,0,.5-5.9,5.6-3.3,8.8-5.4l-8.8-1.6c8.8.2,17.6-.1,26.5,0h0Z"/>
              <path class="st6" d="M307.4,179.1c-1.9,1.9-5,4.4-5.7,6.9-6.2-.7-18.2.1-25.2,0,.3-.7,3.4-1.9,3.8-1.9.1,0,.1.6,1.9.6,1.5,0,3,0,4.4,0,1.2,0,2,0,3.1,0,.2,0,.2,1.3,3.8.6s5.2-2.5,8.2-5c.5,3.4,3.6-.9,4.7-1.9,0,0,.7.9.9.6h0Z"/>
              <path class="st18" d="M288.8,187.3c2.5,1,11.7-.5,13.2.6.3.2.4,6.9.3,7.2-1.4,6.1-19.2,2.5-13.5-7.9h0Z"/>
            </g>
            <path class="st25" d="M238.1,203c1.6,1.6,8.2,1.8,10.4,1.9,8.7.2,17.4-.2,26.1,0,1.6,3.9,2.9,7.5,2.5,12-4,.1-8,0-12,0,2.5-6.6-.1-4.1-.9-5-.9-1-3.6-4.8-4.4-5-1.1-.4-1.9,1-3.1.6-8.8-2.4-17-3.4-26.1-1.9-1,.2-3.9-.1-4.1,0-2.3,1.4-4.4,8.5-2.5,11.3-.7.3-5-2.1-4.7-3.8.2-2.5-2.1-6.6.6-9.4.8,0,1.7,0,2.5,0,4.4,0,11.4-.2,15.8-.6h0Z"/>
            <path class="st18" d="M265.2,216.9c-8.2.1-16.4,0-24.6,0l-1.3-.9c6.8,2.3,1.2-9.1.6-9.4-1.7-1.2-7.4.7-9.4-.9,9.2-1.5,17.4-.5,26.1,1.9,1.2.3,2-1,3.1-.6.8.3,3.5,4,4.4,5,.8.9,3.5-1.5.9,5h0Z"/>
            <path class="st38" d="M293.6,204.9c-2.5,3.1-9.1,6.4-5.7,11.3-3.5.2-7.2.5-10.7.6.4-4.5-.9-8.1-2.5-12,6.2.1,12.7-.8,18.9,0h0Z"/>
            <path class="st25" d="M287.9,216.2c-3.5-4.9,3.2-8.3,5.7-11.3,2.2.3,4.4-.8,6.3.9,1.8,1.6,1.2,7.2,1.3,9.4-4.3,1.6-8.8.7-13.2.9h0Z"/>
            <path class="st6" d="M257.7,234.5c-2.6.6-4.9,1.1-7.6.3-.8-2.1,1.3-9.5.6-10.7-.4-.7-3.9.4-3.1-2.8,1.9.1,11.8.3,12.3.6.8.6,0,3,.3,3.5.5.8,2.6-.1,3.1.6.2.3.2,6.6,0,6.9-.1.2-5,1.4-5.7,1.6h0Z"/>
            <path class="st32" d="M245.1,412.8l-1.9-9.1c-.4-19.5-1.2-39.5-2.5-58.9l5.7-1.3c.5,22,2.8,44.2,2.5,66.5-.9.1-3.4,2.3-3.8,2.8h0Z"/>
            <path class="st9" d="M244.4,284.9l1.3,1.3c.1,19.1.2,38.2.6,57.3l-5.7,1.3c-.2-3.4-1-7.2-1.3-10.7-.4-5.4-.3-11-.6-16.4,1.2-.2,5.1.4,5.7-.3.9-1.3-1.2-28-1.3-32.1,0-.5,1.3-.2,1.3-.3h0Z"/>
            <path class="st9" d="M239.4,334c.2,3.5,1,7.3,1.3,10.7,1.3,19.4,2.1,39.4,2.5,58.9l1.9,9.1c-.5.6,1.2,2.6-2.5,3.1-.5-9-1.9-18.1-2.5-27.1-1.2-18.3-2.4-36.5-3.8-54.8h3.2Z"/>
            <path class="st19" d="M244.4,284.9c0,0-1.3-.2-1.3.3,0,4.1,2.2,30.8,1.3,32.1-.5.8-4.5.1-5.7.3-.6-9.4-2.6-19.6-3.1-28.7-.3-5.4-2.6-40.2-1.9-42.2.9-2.6,7.9-2.6,9.4,0-.8,12.7,1.1,25.5,1.3,38.1h0Z"/>
            <path class="st25" d="M266.5,289.9h-3.8c.2-1.3-.7-10.9-1.6-11.3-4.9-2.4-4.4,6.1-4.1,8.8-1.4.2-4.8-.5-5.7.3-.5.5-.6,12.5-.6,14.2-.9-5.7-.9-11.9-.6-17.6.2-3.4,1.2-6.9.6-10.4l2.5.3c1.2,6.1,11.3,3.3,12,1.6,1-2.4.2-15.1-1.9-17.3s-4.6-1.2-7.6-.9c.9-8.5,6.5-.6,4.7-7.9l6.6.3c.1,12.6,1.3,25.2.6,37.8,0,.2-1.2,2.1-1.3,2.2h0Z"/>
            <path class="st37" d="M263.3,258.4c2,2.2,2.8,15,1.9,17.3-.7,1.8-10.8,4.5-12-1.6-1.5-7.7-.8-19.7,10.1-15.8Z"/>
            <path class="st38" d="M257,287.4c.1,1.1-.3,3.5,0,4.1,1.2,2.8,5.1,1.6,5.7-1.6h3.8c-.3,4.2.3,8.5,0,12.6-5.2,0-10.5.1-15.8,0v-.6c0-1.6,0-13.7.6-14.2.9-.8,4.3,0,5.7-.3h0Z"/>
            <g>
              <path class="st4" d="M262.7,289.9c-.5,3.2-4.4,4.4-5.7,1.6-.3-.6.1-3,0-4.1-.3-2.8-.8-11.2,4.1-8.8.9.4,1.8,10,1.6,11.3h0Z"/>
              <path class="st18" d="M259.9,279.9c2,0,.1,8.4,0,9.5-.5,0-1.9-9.5,0-9.5Z"/>
            </g>
          </g>
        </g>
      </g>
    </g>
  </g>
</svg>