<svg xmlns="http://www.w3.org/2000/svg" version="1.1" viewBox="0 0 588 586" width="32" height="32">
  <path d="M430.84,8.1l4.61,26.91,1.07.86c11.66-3.14,22.9,4.07,33.8,6.94l17.25-21.69c5.04,2.36,30.06,11.35,31.23,15.57,1.55,5.56-13.62,22.97-10.37,28.28.64,1.05,4.51,2.74,5.98,4.03,6.84,6,11.81,13.73,17.11,21.03l26.26-9.92,17.01,28.55c.61,4.01-19.55,15.73-22.44,19.23-2.87,3.47.85,11.13,1.44,15.71.91,7.04.86,14.2,2.33,21.15l26.66,6.34-4.04,34.19c-.18.82-.81,1.15-1.42,1.6-3.13,2.33-23.46-1.98-28.75-.77l-15.33,28.33,16.46,22.15c.2,2.13-15.95,24.55-18.5,25.21-4.48,1.16-19.54-14.23-25.71-13.86-4.49.27-23.44,18.87-30.49,20.12l10,26.24-26.62,14.63c-.93.13-1.36-.43-1.95-.99-3.49-3.29-7.93-17.15-11.93-20.08-5.24-3.83-24.62,6.82-30.42,9.21-2.23,3.51,9,22.88,10.75,27.37-9.41,5.08-18.71,11.5-29.2,14.36-2.9-.73-10.35-17.99-12.48-21.6-.48-.82.3-1.67-1.69-1.26-12.05,9.22-24.33,18.12-34.5,29.48,2.63,4.16,16.6,13.06,17.01,17.04.34,3.26-13.22,22.15-16.57,22.49-4.8.37-24.38-13.01-26.33-11.89-6.41,10.11-14.66,19.46-18,31.26l23.83,14.09-16.97,25.07c-3.58,1.84-17.92-8.92-21.49-11.21-7.73-.49-18.11,23.97-22.06,29.58-1.93,2.74-9.18,8.56-9.49,11.61-.23,2.23,10.28,13.43,12.46,16.54.96,1.36,3.71,4.85,3.44,6.26-3.9,4.29-20.13,24.23-25.12,23.51-4.31-.62-13.62-14.71-20.47-15.7-3.19-.46-10.89,5.43-14.58,7.01-2.76,1.18-17.51,5.72-18.22,6.78-1.35,4.5-.47,26.59-2.43,28.57-1.39,1.41-7.35,1.92-9.69,2.31-5.69.93-14.24,2.05-19.85,2.17-1.38.03-3.77-.45-4.55-1.68-3.38-5.34-3.1-20.57-6.14-26.61-1.88-3.73-7.28-2.33-10.84-3.16-4.93-1.15-17.04-6.97-20.2-6.4-6.41,1.15-15.66,19.14-21.14,18.86-2.72-.14-24.81-19.25-25.46-21.72-.9-3.45,12.73-19.4,14.54-23.79l-13.62-24.04-2.57-1.46-29.48,2-4.87-31.28c.99-3.7,23.37-8.51,27.73-10.85l1.69-34.92c-1.68-5.05-23.33-11.25-24.44-14.61l5.82-30.88,32.07.07c17.94-32.96,40.77-65.09,69.5-89.48,15.56-13.21,33.01-24.17,48.48-37.51,10.55-9.09,19.84-19.82,30.46-28.46l3.23,1.27c3.54,6.51,12.52,12.58,16.35,18.15.61.88,1.43,1.35.5,2.52l-71.56,61.49c-33.73,33.42-65.92,69.19-75.51,117.46-10.75,54.12,13.73,111.74,77.56,99.56,47.98-9.16,63.92-58.4,86.54-94.44,21.7-34.58,59.51-76.71,93.09-99.89,42.91-29.62,100.28-42.35,134.81-82.16,48.28-55.65,23.63-133.21-46.51-152.49-38.33-10.54-81.18,6.57-110,31.98-11.17,9.85-24.13,23-32,35.5-1.45.39-1.66-.39-2.5-.97-1.72-1.19-17.16-16.44-17.37-17.66,26.33-36.94,61.55-72.65,106.44-85.29l1.58-27.92c11.71-4.2,24.42-4.47,36.75-4.03Z" fill="#3a7bec"/>
</svg>